<svg width="80" height="80" fill="none" xmlns="http://www.w3.org/2000/svg"><path d="M39.67 79.376c21.822 0 39.511-17.69 39.511-39.51 0-21.821-17.69-39.51-39.51-39.51C17.85.355.16 18.044.16 39.865c0 21.82 17.689 39.51 39.51 39.51z" fill="url(#paint0_linear_1563_30870)"/><path d="M56.961 55.61l-13.36-32.302c-.754-1.67-1.874-2.484-3.35-2.484h-1.182c-1.476 0-2.596.814-3.35 2.484l-5.814 14.074h-4.4a2.41 2.41 0 0 0-2.392 2.393v.03a2.417 2.417 0 0 0 2.393 2.393h2.362l-5.55 13.411a2.797 2.797 0 0 0-.163.917c0 .753.235 1.344.652 1.802.418.458 1.018.682 1.772.682.499-.01.977-.163 1.375-.458.427-.295.723-.723.957-1.212l6.11-15.152h4.236a2.41 2.41 0 0 0 2.393-2.393v-.061a2.417 2.417 0 0 0-2.393-2.393h-2.26l4.663-11.62 12.709 31.61c.234.488.53.916.957 1.211.397.295.886.448 1.374.458.754 0 1.345-.224 1.772-.682.428-.458.652-1.049.652-1.802.01-.306-.04-.622-.163-.907z" fill="#fff"/><defs><linearGradient id="paint0_linear_1563_30870" x1="69.129" y1="15.079" x2="10.338" y2="64.546" gradientUnits="userSpaceOnUse"><stop stop-color="#B6509E"/><stop offset="1" stop-color="#2EBAC6"/></linearGradient></defs></svg>