<svg width="40" height="41" viewBox="0 0 40 41" fill="none" xmlns="http://www.w3.org/2000/svg">
<path d="M24.1666 29.9093C24.1666 32.6593 21.9166 34.9093 19.1666 34.9093C16.4166 34.9093 14.1666 32.6593 14.1666 29.9093H17.4999C17.4999 30.8259 18.2499 31.5759 19.1666 31.5759C20.0833 31.5759 20.8333 30.8259 20.8333 29.9093C20.8333 28.9926 20.0833 28.2426 19.1666 28.2426H3.33325V24.9093H19.1666C21.9166 24.9093 24.1666 27.1593 24.1666 29.9093ZM31.6666 12.4093C31.6666 9.19259 29.0499 6.57593 25.8333 6.57593C22.6166 6.57593 19.9999 9.19259 19.9999 12.4093H23.3333C23.3333 11.0259 24.4499 9.90926 25.8333 9.90926C27.2166 9.90926 28.3333 11.0259 28.3333 12.4093C28.3333 13.7926 27.2166 14.9093 25.8333 14.9093H3.33325V18.2426H25.8333C29.0499 18.2426 31.6666 15.6259 31.6666 12.4093ZM30.8333 19.9093H3.33325V23.2426H30.8333C32.2166 23.2426 33.3333 24.3593 33.3333 25.7426C33.3333 27.1259 32.2166 28.2426 30.8333 28.2426V31.5759C34.0499 31.5759 36.6666 28.9593 36.6666 25.7426C36.6666 22.5259 34.0499 19.9093 30.8333 19.9093Z" fill="url(#paint0_linear_9678_32781)"/>
<defs>
<linearGradient id="paint0_linear_9678_32781" x1="33.3512" y1="11.6038" x2="9.14635" y2="32.6515" gradientUnits="userSpaceOnUse">
<stop stop-color="#76A0FC"/>
<stop offset="1" stop-color="#B9AAFD"/>
</linearGradient>
</defs>
</svg>
