<svg width="40" height="41" viewBox="0 0 40 41" fill="none" xmlns="http://www.w3.org/2000/svg">
<path d="M21.6666 14.5398C23.0833 14.0398 24.2166 12.9065 24.7166 11.4898H29.9999L24.9999 23.1565C24.9999 25.9232 27.6166 28.1565 30.8333 28.1565C34.0499 28.1565 36.6666 25.9232 36.6666 23.1565L31.6666 11.4898H34.9999V8.15651H24.7166C24.0333 6.20651 22.1833 4.82318 19.9999 4.82318C17.8166 4.82318 15.9666 6.20651 15.2833 8.15651H4.99992V11.4898H8.33325L3.33325 23.1565C3.33325 25.9232 5.94992 28.1565 9.16659 28.1565C12.3833 28.1565 14.9999 25.9232 14.9999 23.1565L9.99992 11.4898H15.2833C15.7833 12.9065 16.9166 14.0398 18.3333 14.5398V33.1565H3.33325V36.4898H36.6666V33.1565H21.6666V14.5398ZM33.9499 23.1565H27.7166L30.8333 15.8898L33.9499 23.1565ZM12.2833 23.1565H6.04992L9.16659 15.8898L12.2833 23.1565ZM19.9999 11.4898C19.0833 11.4898 18.3333 10.7398 18.3333 9.82318C18.3333 8.90651 19.0833 8.15651 19.9999 8.15651C20.9166 8.15651 21.6666 8.90651 21.6666 9.82318C21.6666 10.7398 20.9166 11.4898 19.9999 11.4898Z" fill="url(#paint0_linear_9678_33126)"/>
<defs>
<linearGradient id="paint0_linear_9678_33126" x1="33.3512" y1="10.4426" x2="6.87248" y2="31.0439" gradientUnits="userSpaceOnUse">
<stop stop-color="#76A0FC"/>
<stop offset="1" stop-color="#B9AAFD"/>
</linearGradient>
</defs>
</svg>
