<svg width="25" height="25" viewBox="0 0 25 25" fill="none" xmlns="http://www.w3.org/2000/svg">
<path d="M13.7273 14.9386L15.1573 13.5086L21.5973 19.9516L20.1703 21.3786L13.7273 14.9386ZM18.0203 9.20864L20.8803 6.34864C16.9303 2.39864 10.5303 2.38864 6.58032 6.32864C10.5103 5.02864 14.8903 6.07864 18.0203 9.20864ZM6.55032 6.35864C2.61032 10.3086 2.62032 16.7086 6.57032 20.6586L9.43032 17.7986C6.30032 14.6686 5.25032 10.2886 6.55032 6.35864ZM6.57032 6.33864L6.56032 6.34864C6.18032 9.35864 7.73032 13.2286 10.8603 16.3686L16.5903 10.6386C13.4603 7.50864 9.58032 5.95864 6.57032 6.33864Z" fill="url(#paint0_linear_11431_10272)"/>
<defs>
<linearGradient id="paint0_linear_11431_10272" x1="19.8074" y1="6.57387" x2="4.96493" y2="17.5426" gradientUnits="userSpaceOnUse">
<stop stop-color="#76A0FC"/>
<stop offset="1" stop-color="#B9AAFD"/>
</linearGradient>
</defs>
</svg>
