<svg width="41" height="41" viewBox="0 0 41 41" fill="none" xmlns="http://www.w3.org/2000/svg">
<path d="M38.2587 32.6391L23.1254 17.5057C24.6754 13.6057 23.8754 9.00573 20.7254 5.83907C16.892 2.00573 10.9254 1.65573 6.67538 4.75573L13.0754 11.1724L10.7087 13.5224L4.32538 7.13907C1.22537 11.3724 1.57538 17.3557 5.40871 21.1724C8.50871 24.2724 13.0254 25.0891 16.892 23.6391L32.0754 38.8224C32.7254 39.4724 33.7754 39.4724 34.4254 38.8224L38.2587 34.9891C38.9254 34.3557 38.9254 33.3057 38.2587 32.6391ZM33.2587 35.3057L17.492 19.5391C16.4754 20.2891 15.342 20.7391 14.1587 20.9057C11.892 21.2391 9.50871 20.5557 7.77538 18.8224C6.19204 17.2557 5.45871 15.1557 5.57538 13.0891L10.7254 18.2391L17.792 11.1724L12.642 6.0224C14.7087 5.90573 16.792 6.63907 18.3754 8.20573C20.1754 10.0057 20.8587 12.4891 20.442 14.8057C20.242 15.9891 19.742 17.0891 18.9754 18.0724L34.7254 33.8224L33.2587 35.3057Z" fill="url(#paint0_linear_9678_32793)"/>
<defs>
<linearGradient id="paint0_linear_9678_32793" x1="35.1264" y1="9.17165" x2="4.93931" y2="31.4103" gradientUnits="userSpaceOnUse">
<stop stop-color="#76A0FC"/>
<stop offset="1" stop-color="#B9AAFD"/>
</linearGradient>
</defs>
</svg>
