<svg fill="none" height="30" width="102" xmlns="http://www.w3.org/2000/svg" xmlns:xlink="http://www.w3.org/1999/xlink"><clipPath id="a"><path d="m0 0h102v30h-102z"/></clipPath><g clip-path="url(#a)"><path d="m77.084 26.495 2.716-.853v-22.484l-2.716.853zm-31.326-13.642c1.705 0 3.284.758 4.295 2.02l1.105-2.557c-1.453-1.39-3.38-2.053-5.4-2.053-4.674 0-7.895 3.695-7.863 7.769.031 4.42 3.505 8.02 7.863 8.02 2.21 0 3.884-.662 5.147-1.578v-3.126c-1.326 1.326-3.252 2.115-4.926 2.115-2.526 0-5.368-2.052-5.368-5.431 0-3.126 2.463-5.18 5.147-5.18zm18.063-2.59c-4.674 0-7.39 3.695-7.39 7.769 0 4.42 3.506 8.02 7.864 8.02 2.21 0 3.884-.662 5.147-1.578v-3.126c-1.326 1.326-3.253 2.115-4.926 2.115-2.242 0-4.706-1.39-5.21-4.326h11.904v-1.042c0-4.358-2.873-7.831-7.389-7.831zm29.337 0a7.898 7.898 0 0 0 -7.895 7.895 7.898 7.898 0 0 0 7.895 7.895 7.898 7.898 0 0 0 7.895-7.895 7.898 7.898 0 0 0 -7.895-7.895zm-29.305 2.59c2.115 0 4.357 1.326 4.547 3.884h-9.095c.19-2.558 2.432-3.884 4.548-3.884zm29.305 10.61a5.296 5.296 0 0 1 -5.305-5.305 5.297 5.297 0 0 1 5.305-5.305 5.297 5.297 0 0 1 5.305 5.305 5.296 5.296 0 0 1 -5.305 5.305z" fill="#000"/><path d="m18.158 20.526a8.684 8.684 0 1 0 0-17.368 8.684 8.684 0 0 0 0 17.368zm0 3.158c-6.54 0-11.842-5.302-11.842-11.842s5.302-11.842 11.842-11.842 11.842 5.302 11.842 11.842-5.302 11.842-11.842 11.842z" fill="#35d07f"/><path d="m11.842 26.842a8.684 8.684 0 1 0 0-17.369 8.684 8.684 0 0 0 0 17.369zm0 3.158c-6.54 0-11.842-5.302-11.842-11.843 0-6.54 5.302-11.842 11.842-11.842s11.842 5.302 11.842 11.842-5.302 11.843-11.842 11.843z" fill="#fbcc5c"/><path d="m18.546 23.678a8.659 8.659 0 0 0 1.722-3.41 8.658 8.658 0 0 0 3.41-1.721 11.788 11.788 0 0 1 -.92 4.21 11.788 11.788 0 0 1 -4.212.921zm-8.814-13.946c-1.25.313-2.415.901-3.41 1.722a11.79 11.79 0 0 1 .92-4.212 11.79 11.79 0 0 1 4.212-.92 8.658 8.658 0 0 0 -1.722 3.41z" fill="#5ea33b"/></g></svg>