<svg width="40" height="41" viewBox="0 0 40 41" fill="none" xmlns="http://www.w3.org/2000/svg">
<path d="M28.3333 20.7426C28.3333 16.1426 24.6 12.4092 20 12.4092C15.4 12.4092 11.6667 16.1426 11.6667 20.7426C11.6667 25.3426 15.4 29.0759 20 29.0759C24.6 29.0759 28.3333 25.3426 28.3333 20.7426ZM20 25.7426C17.25 25.7426 15 23.4926 15 20.7426C15 17.9926 17.25 15.7426 20 15.7426C22.75 15.7426 25 17.9926 25 20.7426C25 23.4926 22.75 25.7426 20 25.7426ZM8.33333 25.7426H5V32.4092C5 34.2426 6.5 35.7426 8.33333 35.7426H15V32.4092H8.33333V25.7426ZM8.33333 9.07589H15V5.74255H8.33333C6.5 5.74255 5 7.24255 5 9.07589V15.7426H8.33333V9.07589ZM31.6667 5.74255H25V9.07589H31.6667V15.7426H35V9.07589C35 7.24255 33.5 5.74255 31.6667 5.74255ZM31.6667 32.4092H25V35.7426H31.6667C33.5 35.7426 35 34.2426 35 32.4092V25.7426H31.6667V32.4092Z" fill="url(#paint0_linear_9678_32788)"/>
<defs>
<linearGradient id="paint0_linear_9678_32788" x1="32.0161" y1="11.0662" x2="7.27572" y2="29.3526" gradientUnits="userSpaceOnUse">
<stop stop-color="#76A0FC"/>
<stop offset="1" stop-color="#B9AAFD"/>
</linearGradient>
</defs>
</svg>
