<svg fill="none" height="45" width="221" xmlns="http://www.w3.org/2000/svg"><clipPath id="a"><path d="M0 0h219.344v45H0z" transform="translate(.828)"/></clipPath><g clip-path="url(#a)"><path d="M60.983 17.421c.017-.508.222-.99.577-1.355.182-.169.39-.307.615-.41a2.4 2.4 0 0 1 .74-.165h7.184a1.938 1.938 0 0 1 1.766 1.192 2.4 2.4 0 0 1 .164.738v1.73h-1.888v-1.73h-7.186v9.485h7.186v-1.729h1.89v1.73a1.939 1.939 0 0 1-1.192 1.765 2.4 2.4 0 0 1-.739.164h-7.185a1.938 1.938 0 0 1-1.765-1.191 2.401 2.401 0 0 1-.165-.739v-9.485m25.455-1.888v13.262h-1.888v-5.668h-7.597v5.668h-1.93V15.533h1.93v5.707h7.597v-5.707zm9.28 0l5.132 13.262h-1.889l-1.19-3.039h-5.996l-1.191 3.039h-1.888l5.133-13.262h1.888zm-3.203 8.335h4.514l-2.258-5.871-2.256 5.87zm10.593-8.335h1.889v13.262h-1.889zm7.227 13.262h-1.889V15.533h1.889l7.965 10.306V15.533h1.889v13.262h-1.889l-7.965-10.307zm15.191-5.667a1.94 1.94 0 0 1-1.765-1.19 2.375 2.375 0 0 1-.164-.74v-3.777c.016-.508.222-.99.576-1.355a2.31 2.31 0 0 1 .616-.41c.236-.094.485-.15.738-.165h6.447a1.94 1.94 0 0 1 1.766 1.192c.093.236.148.485.164.738v1.73h-1.889v-1.73h-6.447v3.777h6.446a1.935 1.935 0 0 1 1.766 1.192c.093.235.149.485.164.738v3.777a1.931 1.931 0 0 1-1.191 1.766 2.399 2.399 0 0 1-.739.164h-6.61a1.935 1.935 0 0 1-1.766-1.191 2.403 2.403 0 0 1-.164-.739v-1.729h1.888v1.73h6.611v-3.778h-6.447zm11.744-7.595h9.69v1.888h-7.801v3.819h6.652v1.888h-6.652v3.778h7.801v1.889h-9.69zm12.523 1.888c.017-.508.222-.99.576-1.355a2.31 2.31 0 0 1 .616-.41c.236-.094.485-.15.739-.165h7.185a1.937 1.937 0 0 1 1.766 1.192c.093.236.149.485.164.738v1.73h-1.889v-1.73h-7.185v9.485h7.185v-1.729h1.89v1.73a1.942 1.942 0 0 1-1.191 1.765 2.405 2.405 0 0 1-.739.164h-7.185a1.937 1.937 0 0 1-1.766-1.191 2.404 2.404 0 0 1-.164-.739v-9.485m14.041-1.888h1.889v11.373h7.596V15.533h1.888v11.373a1.93 1.93 0 0 1-1.191 1.766 2.402 2.402 0 0 1-.738.164h-7.597a1.941 1.941 0 0 1-1.765-1.191 2.405 2.405 0 0 1-.165-.739V15.533m25.375 4.722c0 1.847-.78 2.916-2.381 3.161l2.504 5.38h-2.094l-2.464-5.297h-4.147v5.297h-1.888V15.533h7.268c2.135 0 3.202 1.067 3.202 3.244zm-8.622 1.355h5.256a1.7 1.7 0 0 0 1.108-.328c.248-.313.366-.71.329-1.109v-1.315a1.7 1.7 0 0 0-.329-1.108 1.549 1.549 0 0 0-1.108-.329h-5.256v4.19zm11.784-6.077h1.888v13.262h-1.888zm4.148 0h10.634v1.888h-4.352v11.374h-1.889V17.42h-4.393v-1.888zm13.795 0l3.859 6.2 3.86-6.2h2.217l-5.132 8.006v5.256h-1.889v-5.256l-5.132-8.006z" fill="#fff"/><g stroke="#fff" stroke-miterlimit="10"><path d="M39.22 33.253L20.571.96M1.925 11.713l37.294 21.54m0-21.54L1.925 33.253m18.647 10.786V.961m18.647 32.292H1.925M20.572.96L1.925 33.253m37.294-21.54H1.925M20.572 44.04l18.647-32.326m-37.294 0L20.572 44.04M39.22 33.253v-21.54L20.572.961 1.925 11.713v21.54l18.647 10.786zM1.925 22.5h37.294M11.08 38.56L30.032 6.44m-.443 32.394L11.52 6.167" stroke-width=".255"/><path d="M29.76 17.124l-3.03-5.275-12.249-.136-3.369 5.41L29.76 27.877l-3.369 5.38H14.21l-3.098-5.38" stroke-linecap="round" stroke-linejoin="round" stroke-width="2.728"/><path d="M29.896 6.436L20.436.961 1.789 11.713v21.54l18.647 10.786 9.051-5.206" stroke-linecap="round" stroke-linejoin="round" stroke-width="1.819"/></g></g></svg>