<svg width="181" height="36" viewBox="0 0 181 36" fill="none" xmlns="http://www.w3.org/2000/svg">
<g clip-path="url(#clip0_9678_20407)">
<path d="M43.7339 18.9574C43.7339 23.3126 46.4535 26.1978 50.6162 26.1978C54.1963 26.1978 56.8604 24.0063 57.2766 20.816H53.8632C53.5025 22.314 52.309 23.1462 50.6162 23.1462C48.4517 23.1462 47.1196 21.5372 47.1196 18.9574C47.1196 16.3774 48.5626 14.7407 50.7273 14.7407C52.3368 14.7407 53.4747 15.5452 53.8632 17.0987H57.2489C56.8881 13.7975 54.335 11.7169 50.5886 11.7169C46.5368 11.7169 43.7339 14.713 43.7339 18.9574Z" fill="#1F2333"/>
<path d="M58.9915 18.9576C58.9915 23.2297 62.0719 26.1703 66.3179 26.1703C70.5639 26.1703 73.6444 23.2297 73.6444 18.9576C73.6444 14.6854 70.5639 11.7449 66.3179 11.7449C62.0719 11.7449 58.9915 14.6854 58.9915 18.9576ZM62.3772 18.9576C62.3772 16.4608 63.9867 14.7686 66.3179 14.7686C68.649 14.7686 70.2587 16.4608 70.2587 18.9576C70.2587 21.4542 68.649 23.1465 66.3179 23.1465C63.9867 23.1465 62.3772 21.4542 62.3772 18.9576Z" fill="#1F2333"/>
<path d="M81.9617 26.1979C84.0431 26.1979 85.8191 25.2825 86.6516 23.7011L86.8736 25.8372H89.9819V5.19788H86.624V13.8808C85.7637 12.5215 84.0709 11.717 82.156 11.717C78.0209 11.717 75.5233 14.7685 75.5233 19.0407C75.5233 23.2851 77.9931 26.1979 81.9617 26.1979ZM82.711 23.0908C80.3521 23.0908 78.909 21.3709 78.909 18.9296C78.909 16.4886 80.3521 14.7408 82.711 14.7408C85.0699 14.7408 86.5962 16.4607 86.5962 18.9296C86.5962 21.3987 85.0699 23.0908 82.711 23.0908Z" fill="#1F2333"/>
<path d="M99.6435 26.1978C103.223 26.1978 105.721 24.3946 106.304 21.3986H103.168C102.779 22.7024 101.558 23.4237 99.6988 23.4237C97.451 23.4237 96.1745 22.203 95.9247 19.7896L106.248 19.7619V18.7354C106.248 14.4633 103.64 11.7169 99.5324 11.7169C95.5084 11.7169 92.7054 14.6852 92.7054 18.9851C92.7054 23.2294 95.5639 26.1978 99.6435 26.1978ZM99.5601 14.491C101.586 14.491 102.89 15.7394 102.89 17.6258H96.008C96.3409 15.5729 97.562 14.491 99.5601 14.491Z" fill="#1F2333"/>
<path d="M124.11 21.9811V18.8743H121.64V5.55847H117.172L107.987 18.8743V21.9811H118.282V25.8372H121.64V21.9811H124.11ZM111.761 18.8743L118.282 9.38674V18.8743H111.761Z" fill="#1F2333"/>
<path d="M135.502 12.0779C134.947 11.9391 134.475 11.8837 134.004 11.8837C132.172 11.8837 130.868 12.7991 130.285 14.1584L130.09 12.1611H126.899V25.8374H130.285V19.1796C130.285 16.5164 131.811 15.2126 134.253 15.2126H135.502V12.0779Z" fill="#1F2333"/>
<path d="M143.466 26.1978C147.046 26.1978 149.543 24.3946 150.126 21.3986H146.99C146.602 22.7024 145.381 23.4237 143.521 23.4237C141.273 23.4237 139.997 22.203 139.747 19.7896L150.071 19.7619V18.7354C150.071 14.4633 147.462 11.7169 143.355 11.7169C139.331 11.7169 136.528 14.6852 136.528 18.9851C136.528 23.2294 139.386 26.1978 143.466 26.1978ZM143.382 14.491C145.408 14.491 146.713 15.7394 146.713 17.6258H139.83C140.163 15.5729 141.384 14.491 143.382 14.491Z" fill="#1F2333"/>
<path d="M156.166 25.8371V18.458C156.166 16.2387 157.443 14.7962 159.524 14.7962C161.272 14.7962 162.41 15.9058 162.41 18.2084V25.8371H165.795V17.4038C165.795 13.853 164.02 11.7169 160.579 11.7169C158.719 11.7169 157.054 12.5214 156.194 13.9085L155.916 12.133H152.78V25.8371H156.166Z" fill="#1F2333"/>
<path d="M173.201 26.1978C175.339 26.1978 177.198 25.2268 177.781 23.812L178.031 25.8371H181V17.5147C181 13.7143 178.724 11.7169 175.034 11.7169C171.315 11.7169 168.873 13.6588 168.873 16.627H171.758C171.758 15.1845 172.869 14.3523 174.866 14.3523C176.587 14.3523 177.698 15.1013 177.698 16.96V17.2651L173.591 17.5703C170.343 17.82 168.512 19.4012 168.512 21.9257C168.512 24.5055 170.288 26.1978 173.201 26.1978ZM174.312 23.6456C172.785 23.6456 171.953 23.0353 171.953 21.787C171.953 20.6773 172.758 19.9838 174.866 19.7896L177.725 19.5676V20.289C177.725 22.3972 176.394 23.6456 174.312 23.6456Z" fill="#1F2333"/>
<path d="M35.7363 20.9564L33.7115 11.4347C33.6936 11.3501 33.6682 11.2673 33.6355 11.1871C33.3479 10.1968 32.9631 9.98231 32.444 9.5656C31.9639 9.20643 31.7573 9.07043 31.7573 9.07043C31.7573 9.07043 30.4439 12.0659 30.0856 12.3501C26.5727 15.1398 20.6871 19.4865 19.2484 20.271L19.2221 20.285C18.7491 20.5699 18.2139 20.7384 17.6615 20.7767V35.107C18.8899 35.0754 20.0897 34.7331 21.1462 34.1132C22.735 33.2414 26.961 29.8903 31.9144 25.9184L33.8562 24.3631C35.1467 23.3362 35.7663 22.3163 35.7521 21.2405C35.7561 21.1455 35.7507 21.0504 35.7363 20.9564Z" fill="#878787"/>
<path d="M16.3931 20.4621L5.20343 12.2608C5.11009 12.1837 5.02698 12.0952 4.95608 11.9972C4.94618 11.7281 4.86449 11.4664 4.71939 11.2391C4.57429 11.0118 4.37102 10.827 4.13044 10.7038L4.20187 9.07043C4.20187 9.07043 3.96845 9.22302 3.43544 9.54378C2.76483 9.94432 2.26143 10.2373 1.91656 11.8134L1.65701 13.1035L0.0301225 21.2077C0.00747843 21.3218 -0.00245208 21.4381 0.000510978 21.5544C0.0388317 23.0196 1.30168 24.0461 1.59082 24.261L14.3516 34.0333C15.3056 34.7449 16.4692 35.1223 17.6612 35.1065V20.8453C17.206 20.873 16.7559 20.737 16.3931 20.4621Z" fill="black"/>
<path d="M32.9275 9.67795C32.9054 9.66219 32.8841 9.6452 32.8637 9.62706C32.4631 9.29179 24.5529 3.91366 19.8735 0.738381C19.2542 0.315187 18.5165 0.0945624 17.7641 0.107469C17.0117 0.120376 16.2823 0.366167 15.6781 0.810348L15.1054 1.23863C14.1124 1.9776 12.2683 3.34496 10.0447 4.9124C7.49491 6.71156 5.149 8.27725 3.06196 9.51823C2.17538 10.0448 1.35616 11.4683 3.59391 13.2043C3.82975 13.3798 15.6019 22.0246 15.6019 22.0246C16.9531 23.0092 18.5524 22.9215 20.1394 22.0104C21.6838 21.1661 27.1523 17.1133 30.6012 14.4084L31.4772 13.7186C31.5587 13.6536 31.6333 13.5904 31.7041 13.5273C33.1777 12.3214 34.4135 10.6943 32.9275 9.67795Z" fill="#E3E3E3"/>
</g>
<defs>
<clipPath id="clip0_9678_20407">
<rect width="181" height="35" fill="white" transform="translate(0 0.106934)"/>
</clipPath>
</defs>
</svg>
