<svg fill="none" height="35" width="160" xmlns="http://www.w3.org/2000/svg">
<g fill="#000">
<path d="M54.383 16.843v-2.247h-1.124v-1.124h-2.245v-1.124h-2.243v1.124h-2.244v1.124h-1.123v6.742h1.123v1.124h2.243v1.124h2.244v-1.124h2.245v-1.124h1.124v-2.247h-2.246v1.12h-1.123v1.124h-2.243v-1.123H47.65v-4.493h1.122v-1.123h2.243v1.123h1.123v1.124h2.246zm6.08-3.377c2.587 0 4.452 1.827 4.452 4.51 0 2.684-1.858 4.491-4.452 4.491-2.593 0-4.432-1.827-4.432-4.49 0-2.664 1.866-4.511 4.432-4.511zm0 1.653c-1.438 0-2.489 1.108-2.489 2.859s1.051 2.838 2.49 2.838c1.478 0 2.507-1.108 2.507-2.838s-1.03-2.86-2.508-2.86zm6.027-.912a11.53 11.53 0 0 1 3.948-.738c2.197 0 3.597.835 3.597 3.265v5.539h-1.906v-5.366c0-1.245-.778-1.691-1.847-1.691-.63-.004-1.26.08-1.867.252v6.805H66.49zm12.093 8.066l-3.324-8.612H77.3l2.43 6.746 2.417-6.746h1.983l-3.35 8.612zm8.09-3.869v.039c.116 1.537 1.438 2.372 2.78 2.372 1.186 0 2.042-.272 2.897-.835v1.691c-.777.545-1.924.797-3.032.797-2.684 0-4.512-1.716-4.512-4.433 0-2.716 1.79-4.575 4.162-4.575 2.507 0 3.694 1.613 3.694 3.966v.973l-5.99.005zm.058-1.244h4.122c-.038-1.342-.7-2.081-1.944-2.081-1.108 0-1.925.778-2.178 2.081zm12.413.681l3.19 4.432h-2.198l-2.119-3.014-2.12 3.014h-2.1l3.19-4.413-3.003-4.2h2.218l1.904 2.761 1.874-2.76h2.184zm10.406-5.75V10h-2.954v.87h-.863v2.594h-1.295v1.654h1.295v7.35h2.091v-7.35h1.728v-1.652h-1.728v-1.374h1.726zm-1.906 1.734h1.547v.936h-1.725v7.349h-1.374v-7.35h-1.296v-.937h1.296v-2.595h.862v-.869h2.236v1.374h-1.726v2.09h.18zm2.854-3.387v2.084h2.085v-2.085h-2.085zm1.727 1.727h-1.368v-1.369h1.368zm-1.727 1.3v9.004h2.085v-9.003h-2.085zm1.727 8.645h-1.368v-8.285h1.368zm8.571-6.919v-.863h-.869v-.864h-3.386v.864h-.504v-.864h-2.085v9.003h2.085v-6.053h.863v-.864h1.806v.864h.863v6.055h2.092V15.19h-.865zm.505 6.919h-1.374v-6.055h-.864v-.864h-2.522v.864h-.863v6.055h-1.368v-8.285h1.368v.863h1.222v-.863h2.668v.863h.869v.864h.864zm9.009-6.919v-.863h-.864v-.864h-4.686v.864h-.864v.863h-.863v1.223h2.948v-.864h2.236v.864h.869v.51h-3.464v.864h-1.727v.863h-.864v2.092h.864v.864h.863v.863h3.818v-.863h.51v.863h2.085v-7.279zm.503 6.919h-1.368v-.864h-1.228v.864h-3.1v-.864h-.863v-.863h-.862v-1.374h.863v-.864h1.727v-.863h3.464v-1.228h-.869v-.864h-2.955v.864h-2.23v-.505h.863v-.864h.864v-.863h3.969v.863h.863v.864h.864v6.56h-.002z"/>
<path d="M128.218 17.788v.864h-3.027v2.091h3.386v-.865h.869v-2.09zm.869 1.732h-.869v.863h-2.668v-1.374h3.027v-.864h.51zm10.297-4.329v-.863h-.869v-.864h-3.386v.864h-.504v-.864h-2.085v9.003h2.085v-6.053h.863v-.864h1.806v.864h.863v6.055h2.092V15.19h-.865zm.505 6.919h-1.374v-6.055h-.864v-.864h-2.522v.864h-.863v6.055h-1.369v-8.285h1.369v.863h1.222v-.863h2.668v.863h.869v.864h.864zm9.007-6.919v-.863h-.863v-.864h-4.687v.864h-.863v.863h-.864v5.55h.864v.864h.863v.864h4.687v-.864h.863v-.863h.864V18.65h-2.085v.87h-.869v.863h-2.236v-.864h-.863v-3.105h.863v-.864h2.236v.864h.869v.87h2.085V15.19h-.864zm.505 1.733h-1.368v-.869h-.869v-.864h-2.954v.864h-.864v3.823h.864v.864h2.954v-.864h.869v-.87h1.368v1.375h-.863v.863h-.864v.864h-3.969v-.864h-.863v-.863h-.864V15.55h.864v-.863h.863v-.864h3.969v.864h.864v.863h.863zm9.004-1.733v-.863h-.863v-.864h-4.687v.864h-.864v.863h-.863v5.55h.863v.864h.864v.864h4.687v-.864h.863v-.863h.864v-1.223h-2.954v.864h-2.236v-.864h-.864v-.942h6.055v-3.386zm.505 3.027h-6.055v1.66h.864v.864h2.953v-.864h2.236v.505h-.863v.863h-.864v.864h-3.969v-.864h-.863v-.863h-.864V15.55h.864v-.863h.863v-.864h3.969v.864h.864v.863h.863v2.668z"/>
<path d="M156.673 16.055v-.864h-2.954v.864h-.864v1.228h4.687v-1.228zm.51.87h-3.969v-.511h.864v-.864h2.236v.864h.869v.51z"/>
</g>
<path d="M17.308 34.245c9.457 0 17.123-7.666 17.123-17.122C34.431 7.666 26.765 0 17.308 0 7.852 0 .186 7.666.186 17.123c0 9.456 7.666 17.122 17.122 17.122z" fill="#fff"/>
<path d="M27.31 14.816v-4.612h-2.308V7.89h-4.617V5.583H15.77V7.89h-4.614v2.314h-2.31v13.837h2.308v2.309h4.616v2.307h4.615v-2.302h4.618v-2.314h2.309V19.43h-4.617v2.309h-2.309v2.302H15.77v-2.302h-2.307v-9.232h2.307v-2.303h4.616v2.303h2.31v2.309h4.616z" fill="#3a3a3a"/>
<path d="M22.695 12.508h-1.54v2.308h1.54zm-2.31-2.309h-1.54v2.308h1.54zm-4.614-4.616h-1.54V7.89h1.54z" fill="#1682fe"/><path d="M22.692 19.432h-2.305v2.309h2.305v-2.31zm-2.305 2.308h-1.54v2.307h1.54v-2.308zm-4.618 4.616h-1.54v2.307h1.54v-2.308z" fill="#ff5a5a"/>
<path d="M11.153 24.046h-1.54v2.308h1.54zm-2.308-6.923h-1.54v6.923h1.54z" fill="#f4bb3b"/>
<path d="M8.845 10.2h-1.54v6.923h1.54v-6.924z" fill="#60d8a4"/>
<path d="M11.155 7.892h-1.54V10.2h1.54z" fill="#1682fe"/>
</svg>