<svg width="41" height="41" viewBox="0 0 41 41" fill="none" xmlns="http://www.w3.org/2000/svg">
<path d="M22.4143 18.9652C19.4477 17.9818 18.0143 17.3652 18.0143 15.7985C18.0143 14.0985 19.8643 13.4818 21.031 13.4818C23.2143 13.4818 24.0143 15.1318 24.1977 15.7152L26.831 14.5985C26.581 13.8485 25.4643 11.3985 22.5977 10.8652V8.7985H19.2643V10.8985C15.131 11.8318 15.1143 15.6652 15.1143 15.8318C15.1143 19.6152 18.8643 20.6818 20.6977 21.3485C23.331 22.2818 24.4977 23.1318 24.4977 24.7318C24.4977 26.6152 22.7477 27.4152 21.1977 27.4152C18.1643 27.4152 17.2977 24.2985 17.1977 23.9318L14.431 25.0485C15.481 28.6985 18.231 29.6818 19.2643 29.9818V32.1318H22.5977V30.0652C23.2643 29.9152 27.431 29.0818 27.431 24.6985C27.431 22.3818 26.4143 20.3485 22.4143 18.9652ZM5.93099 35.4652H2.59766V25.4652H12.5977V28.7985H8.46432C11.1477 32.8152 15.731 35.4652 20.931 35.4652C29.2143 35.4652 35.931 28.7485 35.931 20.4652H39.2643C39.2643 30.5985 31.0643 38.7985 20.931 38.7985C14.731 38.7985 9.24766 35.7152 5.93099 31.0152V35.4652ZM2.59766 20.4652C2.59766 10.3318 10.7977 2.13184 20.931 2.13184C27.131 2.13184 32.6143 5.21517 35.931 9.91517V5.46517H39.2643V15.4652H29.2643V12.1318H33.3977C30.7143 8.11517 26.131 5.46517 20.931 5.46517C12.6477 5.46517 5.93099 12.1818 5.93099 20.4652H2.59766Z" fill="url(#paint0_linear_11307_7165)"/>
<defs>
<linearGradient id="paint0_linear_11307_7165" x1="35.6174" y1="8.63855" x2="5.3791" y2="30.9886" gradientUnits="userSpaceOnUse">
<stop stop-color="#76A0FC"/>
<stop offset="1" stop-color="#B9AAFD"/>
</linearGradient>
</defs>
</svg>
