<svg width="41" height="41" viewBox="0 0 41 41" fill="none" xmlns="http://www.w3.org/2000/svg">
<path d="M35.2303 13.3252C35.8803 12.6752 35.8803 11.6252 35.2303 10.9752L30.5136 6.2585C29.8636 5.6085 28.8136 5.6085 28.1636 6.2585L20.6803 13.7418L14.1969 7.2585C12.8969 5.9585 10.7803 5.9585 9.48027 7.2585L6.31361 10.4252C5.01361 11.7252 5.01361 13.8418 6.31361 15.1418L12.7969 21.6252L5.28027 29.1418V36.2085H12.3469L19.8803 28.6752L26.3636 35.1585C27.9469 36.7418 30.0803 36.1585 31.0803 35.1585L34.2469 31.9918C35.5469 30.6918 35.5469 28.5752 34.2469 27.2752L27.7636 20.7918L35.2303 13.3252ZM8.68027 12.7752L11.8303 9.6085L13.9469 11.7252L11.9803 13.7085L14.3303 16.0585L16.3136 14.0752L18.3136 16.0752L15.1469 19.2418L8.68027 12.7752ZM27.3969 25.1752L25.4136 27.1585L27.7636 29.5085L29.7469 27.5252L31.8636 29.6418L28.6969 32.8085L22.2136 26.3252L25.3803 23.1585L27.3969 25.1752ZM10.9636 32.8752H8.61361V30.5252L24.6303 14.5085L26.9803 16.8585L10.9636 32.8752ZM26.9803 12.1418L29.3303 9.79183L31.6803 12.1418L29.3303 14.4918L26.9803 12.1418Z" fill="url(#paint0_linear_9678_32797)"/>
<defs>
<linearGradient id="paint0_linear_9678_32797" x1="32.6904" y1="11.1723" x2="7.58918" y2="29.7254" gradientUnits="userSpaceOnUse">
<stop stop-color="#76A0FC"/>
<stop offset="1" stop-color="#B9AAFD"/>
</linearGradient>
</defs>
</svg>
