<svg width="40" height="41" viewBox="0 0 40 41" fill="none" xmlns="http://www.w3.org/2000/svg">
<path d="M30.833 7.23958C30.833 9.07292 29.333 10.5729 27.4997 10.5729C25.6663 10.5729 24.1663 9.07292 24.1663 7.23958C24.1663 5.40625 25.6663 3.90625 27.4997 3.90625C29.333 3.90625 30.833 5.40625 30.833 7.23958ZM26.2997 34.5729L27.5663 35.0229C28.5997 35.3729 29.683 35.5729 30.833 35.5729C32.233 35.5729 33.583 35.2729 34.7997 34.7396L36.6663 36.6229C34.9163 37.5396 32.933 38.0729 30.833 38.0729C29.3997 38.0729 28.033 37.8396 26.7497 37.3896L3.33301 28.8562L4.16634 26.5062L15.6663 30.6896L18.533 23.2896L12.583 17.0729C11.0997 15.5062 11.4663 12.9562 13.333 11.8729L19.133 8.52292C20.9663 7.45625 23.333 8.35625 23.983 10.3729L24.533 12.1729C25.2663 14.5396 26.9997 16.4562 29.2497 17.4062L30.1163 14.7396L32.4997 15.5062L30.633 21.2562C26.5497 20.5896 23.1663 17.8062 21.6663 14.0562L17.4497 16.4729L22.4997 22.2396L18.7997 31.8396L23.9497 33.7062L27.4497 22.9729C28.2163 23.2729 29.0163 23.4896 29.8497 23.6562L26.2997 34.5729Z" fill="url(#paint0_linear_11307_7156)"/>
<defs>
<linearGradient id="paint0_linear_11307_7156" x1="33.3509" y1="9.96932" x2="5.38551" y2="30.1353" gradientUnits="userSpaceOnUse">
<stop stop-color="#76A0FC"/>
<stop offset="1" stop-color="#B9AAFD"/>
</linearGradient>
</defs>
</svg>
