<svg width="41" height="41" viewBox="0 0 41 41" fill="none" xmlns="http://www.w3.org/2000/svg">
<g clip-path="url(#clip0_10042_16578)">
<path d="M25.6017 20.5984L23.1704 20.5984L26.4121 23.8402L29.6538 20.5984L27.2225 20.5984C27.2225 17.0163 24.3212 14.115 20.7391 14.115C19.4667 14.115 18.2835 14.4878 17.2866 15.1199L18.4699 16.3032C19.1425 15.9385 19.9205 15.7359 20.7391 15.7359C23.4216 15.7359 25.6017 17.9159 25.6017 20.5984ZM24.1915 26.077L23.0083 24.8937C22.3275 25.2503 21.5576 25.461 20.7391 25.461C18.0565 25.461 15.8765 23.281 15.8765 20.5984L18.3078 20.5984L15.066 17.3567L11.8243 20.5984L14.2556 20.5984C14.2556 24.1805 17.157 27.0819 20.7391 27.0819C22.0114 27.0819 23.1947 26.7091 24.1915 26.077Z" fill="#1F2333"/>
</g>
<circle cx="20.856" cy="20.4653" r="18.644" stroke="url(#paint0_linear_10042_16578)" stroke-width="3"/>
<defs>
<linearGradient id="paint0_linear_10042_16578" x1="36.9929" y1="7.47064" x2="3.76806" y2="32.0281" gradientUnits="userSpaceOnUse">
<stop stop-color="#76A0FC"/>
<stop offset="1" stop-color="#B9AAFD"/>
</linearGradient>
<clipPath id="clip0_10042_16578">
<rect width="19.4503" height="19.4503" fill="white" transform="translate(30.4644 10.8733) rotate(90)"/>
</clipPath>
</defs>
</svg>
