<svg width="286" height="46" fill="none" xmlns="http://www.w3.org/2000/svg"><path d="M37.925.79v7.765H19.841c-4.25 0-7.351 1.14-9.303 3.422C8.63 14.215 7.676 17.9 7.676 23.033c0 5.09.954 8.774 2.862 11.056 1.909 2.237 5.01 3.356 9.303 3.356h7.286c2.168 0 3.73-.57 4.683-1.711.954-1.185 1.431-2.698 1.431-4.54 0-1.8-.455-3.182-1.366-4.147-.867-1.009-2.211-1.513-4.033-1.513h-9.758v-6.779h10.539c3.946 0 6.874 1.141 8.782 3.422 1.908 2.238 2.862 5.287 2.862 9.148 0 1.93-.26 3.75-.78 5.462a11.206 11.206 0 0 1-2.407 4.409c-1.085 1.228-2.494 2.215-4.229 2.961-1.691.702-3.773 1.053-6.245 1.053h-6.765c-6.419 0-11.34-1.82-14.767-5.462C1.691 36.063 0 30.491 0 23.033 0 15.53 1.691 9.959 5.074 6.318 8.5 2.632 13.422.79 19.841.79h18.084zm13.609 44.42h-8.457L58.494 5.725c.824-2.106 1.974-3.575 3.448-4.409C63.46.44 65.39 0 67.732 0c2.298 0 4.185.439 5.66 1.316 1.517.834 2.666 2.303 3.447 4.41L91.67 45.21h-8.522L69.813 9.476c-.39-1.009-1.106-1.513-2.147-1.513-1.04 0-1.778.504-2.211 1.513L51.534 45.21zm54.199 0h-7.61V9.937c0-2.983.867-5.374 2.602-7.173C102.459.92 105.105 0 108.661 0c3.122 0 5.594.768 7.416 2.303 1.821 1.492 3.035 3.642 3.643 6.45l6.18 27.178c.39 1.668 1.366 2.501 2.927 2.501 1.518 0 2.494-.834 2.927-2.5l6.18-27.18c.607-2.807 1.756-4.957 3.448-6.449C143.117.768 145.567 0 148.733 0c3.556 0 6.201.921 7.936 2.764 1.735 1.799 2.602 4.19 2.602 7.173V45.21h-7.611V10.332c0-.878-.282-1.558-.846-2.04-.52-.527-1.279-.79-2.276-.79-.911 0-1.605.22-2.082.658-.477.395-.802.965-.976 1.711l-6.31 27.18c-.694 2.938-1.843 5.176-3.448 6.712-1.604 1.491-3.924 2.237-6.96 2.237-3.079 0-5.465-.768-7.156-2.303-1.648-1.536-2.797-3.751-3.448-6.647l-6.245-27.179c-.173-.746-.52-1.316-1.04-1.71-.477-.44-1.15-.659-2.017-.659-.997 0-1.778.263-2.342.79-.52.482-.781 1.162-.781 2.04V45.21zm71.659 0h-7.611V9.937c0-2.983.867-5.374 2.602-7.173C174.118.92 176.763 0 180.319 0c3.123 0 5.595.768 7.416 2.303 1.822 1.492 3.036 3.642 3.643 6.45l6.18 27.178c.39 1.668 1.366 2.501 2.927 2.501 1.518 0 2.494-.834 2.928-2.5l6.18-27.18c.607-2.807 1.756-4.957 3.447-6.449C214.775.768 217.225 0 220.391 0c3.556 0 6.202.921 7.937 2.764 1.734 1.799 2.602 4.19 2.602 7.173V45.21h-7.611V10.332c0-.878-.282-1.558-.846-2.04-.521-.527-1.279-.79-2.277-.79-.911 0-1.605.22-2.082.658-.477.395-.802.965-.975 1.711l-6.31 27.18c-.694 2.938-1.843 5.176-3.448 6.712-1.605 1.491-3.925 2.237-6.961 2.237-3.079 0-5.464-.768-7.155-2.303-1.648-1.536-2.798-3.751-3.448-6.647l-6.245-27.179c-.174-.746-.52-1.316-1.041-1.71-.477-.44-1.149-.659-2.016-.659-.998 0-1.779.263-2.342.79-.521.482-.781 1.162-.781 2.04V45.21zm68.471 0h-8.457l15.418-39.485c.824-2.106 1.973-3.575 3.447-4.409C257.789.44 259.719 0 262.061 0c2.298 0 4.185.439 5.659 1.316 1.518.834 2.668 2.303 3.448 4.41L286 45.21h-8.522L264.143 9.476c-.391-1.009-1.106-1.513-2.147-1.513-1.041 0-1.778.504-2.212 1.513L245.863 45.21z" fill="#fff"/></svg>