<svg width="25" height="25" viewBox="0 0 25 25" fill="none" xmlns="http://www.w3.org/2000/svg">
<path d="M12.2891 2.82227L4.28906 5.82227V11.9123C4.28906 16.9623 7.69906 21.6723 12.2891 22.8223C16.8791 21.6723 20.2891 16.9623 20.2891 11.9123V5.82227L12.2891 2.82227ZM18.2891 11.9123C18.2891 15.9123 15.7391 19.6123 12.2891 20.7423C8.83906 19.6123 6.28906 15.9223 6.28906 11.9123V7.21227L12.2891 4.96227L18.2891 7.21227V11.9123ZM10.1991 9.32227L8.78906 10.7323L10.8791 12.8223L8.78906 14.9123L10.1991 16.3223L12.2891 14.2423L14.3791 16.3223L15.7891 14.9123L13.7091 12.8223L15.7891 10.7323L14.3791 9.32227L12.2891 11.4123L10.1991 9.32227Z" fill="url(#paint0_linear_9678_32637)"/>
<defs>
<linearGradient id="paint0_linear_9678_32637" x1="18.6977" y1="6.37138" x2="3.57999" y2="15.3105" gradientUnits="userSpaceOnUse">
<stop stop-color="#76A0FC"/>
<stop offset="1" stop-color="#B9AAFD"/>
</linearGradient>
</defs>
</svg>
