<svg width="40" height="41" viewBox="0 0 40 41" fill="none" xmlns="http://www.w3.org/2000/svg">
<path d="M17.5003 22.6566H13.3337V17.6566H17.5003V13.4899H22.5003V17.6566H26.667V22.6566H22.5003V26.8232H17.5003V22.6566ZM20.0003 4.32324L6.66699 9.32324V19.4732C6.66699 27.8899 12.3503 35.7399 20.0003 37.6566C27.6503 35.7399 33.3337 27.8899 33.3337 19.4732V9.32324L20.0003 4.32324ZM30.0003 19.4732C30.0003 26.1399 25.7503 32.3066 20.0003 34.1899C14.2503 32.3066 10.0003 26.1566 10.0003 19.4732V11.6399L20.0003 7.88991L30.0003 11.6399V19.4732Z" fill="url(#paint0_linear_11307_7152)"/>
<defs>
<linearGradient id="paint0_linear_11307_7152" x1="30.6813" y1="10.2384" x2="5.4852" y2="25.137" gradientUnits="userSpaceOnUse">
<stop stop-color="#76A0FC"/>
<stop offset="1" stop-color="#B9AAFD"/>
</linearGradient>
</defs>
</svg>
