<svg fill="none" height="45" width="201" xmlns="http://www.w3.org/2000/svg"><clipPath id="a"><path d="M0 0h200.357v45H0z" transform="translate(.321)"/></clipPath><g clip-path="url(#a)" fill="#fff"><g clip-rule="evenodd" fill-rule="evenodd"><path d="M11.48 19.134l13.825 14.073 13.678-13.924L50.198 30.7l-13.03 13.264-3.353-3.322 9.768-9.942-4.6-4.683L25.305 39.94 11.48 25.866l-4.544 4.626 9.915 10.094-3.351 3.321L.321 30.493l11.16-11.36z"/><path d="M39.039 25.866L25.214 11.793 11.536 25.716.321 14.3l13.03-13.264 3.353 3.321L6.936 14.3l4.6 4.683L25.214 5.059l13.825 14.075 4.544-4.627-9.916-10.093 3.352-3.321 13.178 13.414-11.158 11.36zm-15.89 17.767v-8.867h4.515v8.867H23.15z"/><path d="M23.15 10.234V1.367h4.514v8.867z"/></g><path d="M65.41 11.505h-4.5v22.65h4.5zm22.82 5.978c-2.045 0-3.995.88-4.971 2.8-1.007-1.92-2.893-2.8-5.096-2.8-1.982 0-3.492.754-4.278 2.107l-.472-1.794h-4.092v16.361h4.405v-9.155c0-2.422 1.259-3.586 3.115-3.586 1.761 0 2.957 1.101 2.957 3.774v8.967h4.247v-9.06c.063-2.549 1.384-3.681 3.115-3.681 1.792 0 2.957 1.101 2.957 3.555v9.217h4.435V24.09c0-4.53-3.05-6.606-6.323-6.606l.001-.002zm28.725 0c-2.045 0-3.995.88-4.97 2.8-1.008-1.92-2.895-2.8-5.097-2.8-1.982 0-3.493.754-4.278 2.107l-.472-1.794h-4.092v16.361h4.405v-9.155c0-2.422 1.258-3.586 3.115-3.586 1.761 0 2.957 1.101 2.957 3.774v8.967h4.247v-9.06c.062-2.549 1.384-3.681 3.115-3.681 1.792 0 2.957 1.101 2.957 3.555v9.217h4.436V24.09c0-4.53-3.052-6.606-6.324-6.606l.001-.002zm20.546.313v8.966c0 2.423-1.133 3.87-3.304 3.901-2.076.064-3.397-1.163-3.397-3.711v-9.156h-4.184v9.721c0 4.184 2.421 6.954 6.606 6.954 1.95 0 3.366-.882 4.216-2.108l.22 1.793h4.027v-16.36zm17.108-.313c-2.453 0-4.089.911-4.939 2.264l-.252-1.95h-4.089v16.36h4.404v-8.653c0-2.642 1.258-4.247 3.586-4.247 2.14 0 3.43 1.384 3.43 4.09v8.81h4.436v-9.722c0-4.184-2.392-6.954-6.576-6.954zm25.837 8.242c0-5.003-3.241-8.242-8.117-8.242-4.877 0-8.148 3.396-8.148 8.493 0 5.128 3.272 8.525 8.18 8.525 4.12 0 7.235-2.296 7.958-5.693h-4.435c-.503 1.415-1.793 2.14-3.398 2.14-2.107 0-3.807-1.354-3.869-3.777h11.829zm-8.117-4.814c1.918 0 3.524 1.101 3.712 3.366h-7.393c.189-2.265 1.794-3.366 3.681-3.366zm9.836-3.115v3.838h2.517v12.523h4.436V21.634h3.743v-3.838h-3.743V16.13c0-1.163.314-2.044 2.107-2.044h1.636v-3.587h-2.611c-4.121 0-5.568 2.014-5.568 5.19v2.108h-2.517zm13.605-2.516h4.467l.063-4.782h-4.466zm.064 18.876h4.403v-16.36h-4.403z"/></g></svg>