<svg width="40" height="41" viewBox="0 0 40 41" fill="none" xmlns="http://www.w3.org/2000/svg">
<path d="M11.7002 22.698C8.01683 22.698 5.0335 25.6813 5.0335 29.3646C5.0335 33.048 8.01683 36.0313 11.7002 36.0313C15.3835 36.0313 18.3668 33.048 18.3668 29.3646C18.3668 25.6813 15.3835 22.698 11.7002 22.698ZM11.7002 32.698C9.86683 32.698 8.36683 31.198 8.36683 29.3646C8.36683 27.5313 9.86683 26.0313 11.7002 26.0313C13.5335 26.0313 15.0335 27.5313 15.0335 29.3646C15.0335 31.198 13.5335 32.698 11.7002 32.698ZM21.6668 22.698V36.0313H35.0002V22.698H21.6668ZM31.6668 32.698H25.0002V26.0313H31.6668V32.698ZM11.6668 4.36462L3.3335 19.3646H20.0002L11.6668 4.36462ZM11.6668 11.2313L14.3335 16.0313H9.00016L11.6668 11.2313ZM32.0835 5.19796C30.3168 5.19796 29.0668 6.13129 28.3335 7.14796C27.6002 6.13129 26.3502 5.19796 24.5835 5.19796C21.9835 5.19796 20.0002 7.33129 20.0002 9.78129C20.0002 13.1146 24.0335 15.4813 28.3335 19.3646C32.6335 15.4813 36.6668 13.1146 36.6668 9.78129C36.6668 7.33129 34.6835 5.19796 32.0835 5.19796ZM28.3335 14.948C25.9168 12.9146 23.3335 10.948 23.3335 9.78129C23.3335 9.06462 23.9168 8.53129 24.5835 8.53129C25.1002 8.53129 25.4502 8.81462 25.8002 9.14796L28.3335 11.5313L30.8668 9.14796C31.2168 8.81462 31.5668 8.53129 32.0835 8.53129C32.7502 8.53129 33.3335 9.06462 33.3335 9.78129C33.3335 10.948 30.7502 12.9146 28.3335 14.948Z" fill="url(#paint0_linear_9678_33029)"/>
<defs>
<linearGradient id="paint0_linear_9678_33029" x1="33.3514" y1="9.98406" x2="6.87272" y2="30.5853" gradientUnits="userSpaceOnUse">
<stop stop-color="#76A0FC"/>
<stop offset="1" stop-color="#B9AAFD"/>
</linearGradient>
</defs>
</svg>
