<svg fill="none" height="511" viewBox="0 0 410 511" width="410" xmlns="http://www.w3.org/2000/svg" xmlns:xlink="http://www.w3.org/1999/xlink"><filter id="a" color-interpolation-filters="sRGB" filterUnits="userSpaceOnUse" height="1158.47" width="875.916" x="-198.548" y="-358.989"><feFlood flood-opacity="0" result="BackgroundImageFix"/><feBlend in="SourceGraphic" in2="BackgroundImageFix" mode="normal" result="shape"/><feGaussianBlur result="effect1_foregroundBlur_11427_10318" stdDeviation="88.9985"/></filter><filter id="b" color-interpolation-filters="sRGB" filterUnits="userSpaceOnUse" height="689.089" width="505.558" x="64.3227" y="-85.0057"><feFlood flood-opacity="0" result="BackgroundImageFix"/><feColorMatrix in="SourceAlpha" result="hardAlpha" type="matrix" values="0 0 0 0 0 0 0 0 0 0 0 0 0 0 0 0 0 0 127 0"/><feOffset dy="4.47722"/><feGaussianBlur stdDeviation="44.7722"/><feComposite in2="hardAlpha" operator="out"/><feColorMatrix type="matrix" values="0 0 0 0 0 0 0 0 0 0 0 0 0 0 0 0 0 0 0.06 0"/><feBlend in2="BackgroundImageFix" mode="normal" result="effect1_dropShadow_11427_10318"/><feBlend in="SourceGraphic" in2="effect1_dropShadow_11427_10318" mode="normal" result="shape"/></filter><linearGradient id="c" gradientUnits="userSpaceOnUse" x1="240.737" x2="476.036" y1="477.717" y2="431.763"><stop offset="0" stop-color="#b9aafd"/><stop offset="1" stop-color="#2ac8a5"/></linearGradient><clipPath id="d"><rect height="410" rx="20" transform="matrix(.00000004 -1 -1 -.00000004 410 510.062)" width="510"/></clipPath><mask id="e" height="713" maskUnits="userSpaceOnUse" width="411" x="0" y="-85"><path d="m410.123-84.3879v712.3149h-410.12037549l.00003027-712.3149z" fill="#fff"/></mask><g clip-path="url(#d)"><g mask="url(#e)"><g filter="url(#a)"><path d="m262.223-180.992v460.333h-255.8129l.00001-460.333z" fill="#87dcc9"/><path d="m256.023 243.064v378.417h-276.5745v-378.417z" fill="#76a0fc"/><path d="m499.371-49.0377v486.5997h-310.153v-486.5997z" fill="#87dcc9"/><path d="m422.563 240.158-420.05519 2.906-1.934891-316.8422 420.055081-2.906z" fill="#b9aafd"/></g></g><g filter="url(#b)"><path d="m250.487.0630861 229.848-.0015636v509.9974775l-326.468.002z" fill="url(#c)"/></g></g></svg>