<svg width="134" height="37" fill="none" xmlns="http://www.w3.org/2000/svg"><g clip-path="url(#clip0_3202_37841)" fill="#fff"><path d="M10.37.937a10.208 10.208 0 0 0-7.224 3.045 10.274 10.274 0 0 0-2.962 7.279v3.41h8.277v-4.94a1.771 1.771 0 0 1 1.086-1.633c.214-.089.443-.134.674-.134h.299a1.756 1.756 0 0 1 1.627 1.09c.088.215.134.445.134.677v13.244a8.255 8.255 0 0 0 5.852-2.432 8.306 8.306 0 0 0 2.424-5.872v-3.41a10.36 10.36 0 0 0-2.984-7.3A10.1 10.1 0 0 0 10.37.938z"/><path d="M10.52 29.68h-.298a1.753 1.753 0 0 1-1.245-.517 1.765 1.765 0 0 1-.516-1.25V14.67a8.253 8.253 0 0 0-5.852 2.432 8.305 8.305 0 0 0-2.424 5.871v3.363A10.25 10.25 0 0 0 3.13 33.63a10.158 10.158 0 0 0 14.48 0 10.223 10.223 0 0 0 2.946-7.294v-3.363H12.28v4.94a1.772 1.772 0 0 1-1.087 1.633 1.753 1.753 0 0 1-.674.134zm24.185-18.263h-2.9V26.18h8.514v-2.784h-5.613v-11.98zm14.905 5.461a4.13 4.13 0 0 0-3.427-1.54 4.747 4.747 0 0 0-3.605 1.615 5.951 5.951 0 0 0 0 7.91 4.765 4.765 0 0 0 3.605 1.613c1.472 0 2.614-.514 3.427-1.54v1.244h2.712V15.635H49.61v1.243zm-.83 6.17a2.837 2.837 0 0 1-2.092.833 2.793 2.793 0 0 1-2.081-.833 3.203 3.203 0 0 1 0-4.282 2.806 2.806 0 0 1 2.081-.833 2.832 2.832 0 0 1 2.092.833 3.174 3.174 0 0 1 0 4.282zm10.53-.325l-2.742-7.088h-2.964l4.308 10.208a3.246 3.246 0 0 1-1.02 1.561 2.72 2.72 0 0 1-1.734.464V30.4a4.979 4.979 0 0 0 3.37-.919c.902-.683 1.626-1.777 2.173-3.283l3.832-10.563h-2.9l-2.324 7.088zm11.092-7.383a5.334 5.334 0 0 0-3.994 1.593 5.839 5.839 0 0 0 .02 7.961c1.052 1.055 2.447 1.582 4.184 1.582 2.018 0 3.546-.752 4.583-2.256l-2.186-1.266a2.772 2.772 0 0 1-2.355 1.055c-1.611 0-2.6-.661-2.964-1.983h7.926c.067-.369.103-.743.105-1.118a5.577 5.577 0 0 0-1.503-3.965 5.01 5.01 0 0 0-3.816-1.603zm-2.754 4.577a2.67 2.67 0 0 1 .946-1.572 2.848 2.848 0 0 1 1.808-.559 2.737 2.737 0 0 1 1.65.528c.51.393.852.966.957 1.602h-5.36zm12.677-2.468v-1.814h-2.712V26.18h2.712v-5.04c0-1.013.326-1.737.977-2.174a3.187 3.187 0 0 1 2.218-.506v-3.036a3.804 3.804 0 0 0-1.944.506 2.837 2.837 0 0 0-1.251 1.518zM96.743 13.7v-2.283h-9.646V14.2h5.97l-6.126 9.654v2.325h9.919v-2.783h-6.244l6.127-9.697zm6.519 1.64a5.335 5.335 0 0 0-3.994 1.593 5.837 5.837 0 0 0 .02 7.961c1.052 1.055 2.446 1.582 4.184 1.582 2.017 0 3.545-.752 4.583-2.256l-2.187-1.266a2.772 2.772 0 0 1-2.354 1.055c-1.612 0-2.6-.661-2.964-1.983h7.926a6.45 6.45 0 0 0 .104-1.118 5.578 5.578 0 0 0-1.502-3.965 5.018 5.018 0 0 0-3.816-1.603zm-2.754 4.577c.12-.62.455-1.177.946-1.572a2.846 2.846 0 0 1 1.808-.559 2.73 2.73 0 0 1 1.65.528c.51.393.851.966.956 1.602h-5.36zm12.677-2.468v-1.814h-2.712V26.18h2.712v-5.04c0-1.013.326-1.737.977-2.174a3.187 3.187 0 0 1 2.218-.506v-3.036a3.805 3.805 0 0 0-1.944.506 2.838 2.838 0 0 0-1.251 1.518zm9.375-2.11a5.498 5.498 0 0 0-3.476 1.29 5.534 5.534 0 0 0-1.303 6.88 5.515 5.515 0 0 0 2.763 2.48 5.491 5.491 0 0 0 3.702.161 5.512 5.512 0 0 0 2.968-2.228 5.542 5.542 0 0 0-.702-6.968 5.353 5.353 0 0 0-3.952-1.614zm2.039 7.657a2.766 2.766 0 0 1-2.039.822 2.726 2.726 0 0 1-2.029-.822 3.095 3.095 0 0 1 0-4.176 2.729 2.729 0 0 1 2.029-.822 2.757 2.757 0 0 1 2.039.822 3.067 3.067 0 0 1 0 4.176zm9.217-.064h-3.301v3.248h3.301v-3.248z"/></g><defs><clipPath id="clip0_3202_37841"><path fill="#fff" transform="translate(0 .754)" d="M0 0h134v36H0z"/></clipPath></defs></svg>