<svg width="42" height="31" viewBox="0 0 42 31" fill="none" xmlns="http://www.w3.org/2000/svg">
<path d="M29.1983 7.67778C29.2421 7.30858 29.7779 7.30858 29.8217 7.67778L30.1892 10.775C30.6638 14.7744 33.8169 17.9276 37.8163 18.4021L40.9135 18.7696C41.2827 18.8134 41.2827 19.3492 40.9135 19.393L37.8163 19.7605C33.8169 20.235 30.6638 23.3882 30.1892 27.3876L29.8217 30.4848C29.7779 30.854 29.2421 30.854 29.1983 30.4848L28.8308 27.3876C28.3563 23.3882 25.2031 20.235 21.2037 19.7605L18.1065 19.393C17.7373 19.3492 17.7373 18.8134 18.1065 18.7696L21.2037 18.4021C25.2031 17.9276 28.3563 14.7744 28.8308 10.775L29.1983 7.67778Z" fill="url(#paint0_linear_9678_20231)"/>
<path d="M6.9483 0.856641C6.97346 0.644791 7.28087 0.644791 7.30603 0.856641L7.5169 2.63387C7.7892 4.92875 9.59854 6.73808 11.8934 7.01038L13.6706 7.22125C13.8825 7.24641 13.8825 7.55382 13.6706 7.57898L11.8934 7.78985C9.59854 8.06215 7.7892 9.87149 7.5169 12.1663L7.30603 13.9436C7.28087 14.1554 6.97346 14.1554 6.9483 13.9436L6.73743 12.1663C6.46513 9.87149 4.6558 8.06215 2.36092 7.78985L0.583692 7.57898C0.371842 7.55382 0.371842 7.24641 0.583692 7.22125L2.36092 7.01038C4.6558 6.73808 6.46513 4.92875 6.73743 2.63387L6.9483 0.856641Z" fill="url(#paint1_linear_9678_20231)"/>
<defs>
<linearGradient id="paint0_linear_9678_20231" x1="39.6112" y1="13.0122" x2="18.8802" y2="25.9953" gradientUnits="userSpaceOnUse">
<stop stop-color="#FDCEAA"/>
<stop offset="1" stop-color="#FAF1E7"/>
</linearGradient>
<linearGradient id="paint1_linear_9678_20231" x1="12.4963" y1="3.0765" x2="1.44165" y2="11.2473" gradientUnits="userSpaceOnUse">
<stop stop-color="#76A0FC"/>
<stop offset="1" stop-color="#B9AAFD"/>
</linearGradient>
</defs>
</svg>
