<svg fill="none" height="121" width="339" xmlns="http://www.w3.org/2000/svg"><path d="m122 80.154h26.687v-6.923h-18.774v-38.77h-7.913zm40.607-34.077h-7.68v34.077h7.68zm-3.801-5.615c2.56 0 4.81-2.154 4.81-4.77 0-2.615-2.25-4.692-4.81-4.692-2.638 0-4.888 2.077-4.888 4.692 0 2.616 2.25 4.77 4.888 4.77zm43.185 7.384c-3.491-1.461-8.301-2.538-13.034-2.538-12.179 0-19.782 6.923-19.782 17.846 0 11.307 7.603 17.769 18.696 17.769 2.716 0 5.198-.538 6.517-1.077v14.154h7.603zm-7.603 25.385c-1.94.692-3.569 1.077-6.051 1.077-6.905 0-11.404-4.385-11.404-11.154 0-7.077 4.577-11.077 12.024-11.077 2.095 0 3.879.384 5.431.846zm44.53-27.154h-7.602v28.077c-2.017.308-4.19.462-5.896.462-5.043 0-8.146-1.847-8.146-6.924v-21.614h-7.603v22.154c0 9.538 6.051 12.692 15.904 12.692 4.034 0 9.309-.538 13.343-1.538zm17.524 0h-7.68v34.077h7.68zm-3.801-5.615c2.56 0 4.81-2.154 4.81-4.77 0-2.615-2.25-4.692-4.81-4.692-2.638 0-4.888 2.077-4.888 4.692 0 2.616 2.25 4.77 4.888 4.77zm9.623 12h5.198v17.923c0 7.77 4.732 10.538 10.318 10.538 3.258 0 6.051-.692 8.301-1.846v-6.846c-2.095 1.23-4.034 1.923-6.284 1.923-2.948 0-4.732-1.385-4.732-5.461v-16.231h9.775v-6.385h-9.775v-8.307h-7.603v8.307h-5.198zm33.428-6.385h-8.223l14.197 35.615-4.81 12.308h7.525l18.619-47.923h-7.913l-9.62 26.846z" fill="#000"/><path d="m51.778 95.758c19.54 0 35.38-15.84 35.38-35.38-.001-19.538-15.841-35.378-35.381-35.378-19.537 0-35.377 15.84-35.377 35.379 0 19.54 15.84 35.379 35.38 35.379z" fill="#2eb6ea"/><path d="m51.586 95.758c-35.187 0-49.074-46.29-17.994-65.798-3.696 38.689 15.966 39.545 34.212 38.689 30.574-1.434 30.596 27.11 30.596 27.11h-46.814z" fill="#1542cd"/><path clip-rule="evenodd" d="m85.22 71.952c-5.323 13.642-18.412 23.398-33.833 23.832.362.01.727.015 1.094.015h46.519s-.012-16.73-13.78-23.847z" fill="#745ddf" fill-rule="evenodd"/></svg>