<svg width="40" height="41" viewBox="0 0 40 41" fill="none" xmlns="http://www.w3.org/2000/svg">
<path d="M22.7001 5.74255C14.4167 5.74255 7.70005 12.4592 7.70005 20.7426C7.70005 20.8426 7.71672 20.9426 7.71672 21.0592L4.65005 17.9926L2.30005 20.3426L9.36672 27.4092L16.4334 20.3426L14.0834 17.9926L11.05 21.0259C11.05 20.9259 11.0334 20.8426 11.0334 20.7426C11.0334 14.3092 16.2667 9.07589 22.7001 9.07589C29.1334 9.07589 34.3667 14.3092 34.3667 20.7426C34.3667 27.1759 29.1334 32.4092 22.7001 32.4092C19.5334 32.4092 16.6667 31.1426 14.5667 29.0926L12.2 31.4426C14.9 34.0926 18.6167 35.7426 22.7001 35.7426C30.9834 35.7426 37.7001 29.0259 37.7001 20.7426C37.7001 12.4592 30.9834 5.74255 22.7001 5.74255ZM26.0334 19.0759V17.4092C26.0334 15.5759 24.5334 14.0759 22.7001 14.0759C20.8667 14.0759 19.3667 15.5759 19.3667 17.4092V19.0759C18.45 19.0759 17.7 19.8259 17.7 20.7426V25.7426C17.7 26.6592 18.45 27.4092 19.3667 27.4092H26.0334C26.9501 27.4092 27.7001 26.6592 27.7001 25.7426V20.7426C27.7001 19.8259 26.9501 19.0759 26.0334 19.0759ZM24.3667 19.0759H21.0334V17.4092C21.0334 16.4926 21.7834 15.7426 22.7001 15.7426C23.6167 15.7426 24.3667 16.4926 24.3667 17.4092V19.0759Z" fill="url(#paint0_linear_9678_32785)"/>
<defs>
<linearGradient id="paint0_linear_9678_32785" x1="34.1791" y1="11.0662" x2="8.5399" y2="33.4281" gradientUnits="userSpaceOnUse">
<stop stop-color="#76A0FC"/>
<stop offset="1" stop-color="#B9AAFD"/>
</linearGradient>
</defs>
</svg>
