<svg width="24" height="25" viewBox="0 0 24 25" fill="none" xmlns="http://www.w3.org/2000/svg">
<path d="M19.5 19.3804L4.77 4.18043L3.5 5.45043L6.3 8.25043V8.26043C5.78 9.25043 5.5 10.4204 5.5 11.6804V16.6804L3.5 18.6804V19.6804H17.23L19.23 21.6804L20.5 20.4104L19.5 19.3804ZM11.5 22.6904C12.61 22.6904 13.5 21.8004 13.5 20.6904H9.5C9.5 21.8004 10.39 22.6904 11.5 22.6904ZM17.5 15.3704V11.6904C17.5 8.61043 15.86 6.05043 13 5.37043V4.69043C13 3.86043 12.33 3.19043 11.5 3.19043C10.67 3.19043 10 3.86043 10 4.69043V5.37043C9.85 5.40043 9.71 5.45043 9.58 5.49043C9.48 5.52043 9.38 5.56043 9.28 5.60043H9.27C9.26 5.60043 9.26 5.60043 9.25 5.61043C9.02 5.70043 8.79 5.81043 8.57 5.92043C8.57 5.92043 8.56 5.92043 8.56 5.93043L17.5 15.3704Z" fill="url(#paint0_linear_9678_32659)"/>
<defs>
<linearGradient id="paint0_linear_9678_32659" x1="18.8091" y1="6.65082" x2="3.49085" y2="16.5215" gradientUnits="userSpaceOnUse">
<stop stop-color="#76A0FC"/>
<stop offset="1" stop-color="#B9AAFD"/>
</linearGradient>
</defs>
</svg>
