<svg width="40" height="41" viewBox="0 0 40 41" fill="none" xmlns="http://www.w3.org/2000/svg">
<path d="M27.7837 22.8729C30.067 24.4229 31.667 26.5229 31.667 29.3229V34.3229H38.3337V29.3229C38.3337 25.6896 32.3837 23.5396 27.7837 22.8729Z" fill="url(#paint0_linear_11307_7160)"/>
<path d="M25.0003 20.9896C28.6837 20.9896 31.667 18.0062 31.667 14.3229C31.667 10.6396 28.6837 7.65625 25.0003 7.65625C24.217 7.65625 23.4837 7.82292 22.7837 8.05625C24.167 9.77292 25.0003 11.9563 25.0003 14.3229C25.0003 16.6896 24.167 18.8729 22.7837 20.5896C23.4837 20.8229 24.217 20.9896 25.0003 20.9896Z" fill="url(#paint1_linear_11307_7160)"/>
<path d="M15.0003 20.9896C18.6837 20.9896 21.667 18.0062 21.667 14.3229C21.667 10.6396 18.6837 7.65625 15.0003 7.65625C11.317 7.65625 8.33366 10.6396 8.33366 14.3229C8.33366 18.0062 11.317 20.9896 15.0003 20.9896ZM15.0003 10.9896C16.8337 10.9896 18.3337 12.4896 18.3337 14.3229C18.3337 16.1562 16.8337 17.6562 15.0003 17.6562C13.167 17.6562 11.667 16.1562 11.667 14.3229C11.667 12.4896 13.167 10.9896 15.0003 10.9896Z" fill="url(#paint2_linear_11307_7160)"/>
<path d="M15.0003 22.6562C10.5503 22.6562 1.66699 24.8896 1.66699 29.3229V34.3229H28.3337V29.3229C28.3337 24.8896 19.4503 22.6562 15.0003 22.6562ZM25.0003 30.9896H5.00033V29.3396C5.33366 28.1396 10.5003 25.9896 15.0003 25.9896C19.5003 25.9896 24.667 28.1396 25.0003 29.3229V30.9896Z" fill="url(#paint3_linear_11307_7160)"/>
<defs>
<linearGradient id="paint0_linear_11307_7160" x1="34.6867" y1="12.3884" x2="11.6859" y2="35.7643" gradientUnits="userSpaceOnUse">
<stop stop-color="#76A0FC"/>
<stop offset="1" stop-color="#B9AAFD"/>
</linearGradient>
<linearGradient id="paint1_linear_11307_7160" x1="34.6867" y1="12.3884" x2="11.6859" y2="35.7643" gradientUnits="userSpaceOnUse">
<stop stop-color="#76A0FC"/>
<stop offset="1" stop-color="#B9AAFD"/>
</linearGradient>
<linearGradient id="paint2_linear_11307_7160" x1="34.6867" y1="12.3884" x2="11.6859" y2="35.7643" gradientUnits="userSpaceOnUse">
<stop stop-color="#76A0FC"/>
<stop offset="1" stop-color="#B9AAFD"/>
</linearGradient>
<linearGradient id="paint3_linear_11307_7160" x1="34.6867" y1="12.3884" x2="11.6859" y2="35.7643" gradientUnits="userSpaceOnUse">
<stop stop-color="#76A0FC"/>
<stop offset="1" stop-color="#B9AAFD"/>
</linearGradient>
</defs>
</svg>
