<svg width="41" height="41" viewBox="0 0 41 41" fill="none" xmlns="http://www.w3.org/2000/svg">
<path d="M20.9306 3.79858C11.7306 3.79858 4.26392 11.2653 4.26392 20.4653C4.26392 29.6653 11.7306 37.1319 20.9306 37.1319C30.1306 37.1319 37.5973 29.6653 37.5973 20.4653C37.5973 11.2653 30.1306 3.79858 20.9306 3.79858ZM7.59725 20.4653C7.59725 19.4486 7.73058 18.4486 7.94725 17.4986L15.9139 25.4653V27.1319C15.9139 28.9653 17.4139 30.4653 19.2472 30.4653V33.6819C12.6972 32.8486 7.59725 27.2486 7.59725 20.4653ZM30.7472 29.4653C30.3139 28.1153 29.0806 27.1319 27.5806 27.1319H25.9139V22.1319C25.9139 21.2153 25.1639 20.4653 24.2472 20.4653H14.2472V17.1319H17.5806C18.4972 17.1319 19.2472 16.3819 19.2472 15.4653V12.1319H22.5806C24.4139 12.1319 25.9139 10.6319 25.9139 8.79858V8.11525C30.7973 10.0819 34.2639 14.8819 34.2639 20.4653C34.2639 23.9319 32.9139 27.0986 30.7472 29.4653Z" fill="url(#paint0_linear_9678_32808)"/>
<defs>
<linearGradient id="paint0_linear_9678_32808" x1="34.2819" y1="9.71378" x2="6.7925" y2="30.032" gradientUnits="userSpaceOnUse">
<stop stop-color="#76A0FC"/>
<stop offset="1" stop-color="#B9AAFD"/>
</linearGradient>
</defs>
</svg>
