<svg width="126" height="158" viewBox="0 0 126 158" fill="none" xmlns="http://www.w3.org/2000/svg">
<path d="M78.287 63.5984C78.287 72.2487 71.2892 79.2623 62.6588 79.2623V94.9263C79.9196 94.9263 93.915 80.8989 93.915 63.5984C93.915 46.298 79.9196 32.2705 62.6588 32.2705C56.9689 32.2705 51.6253 33.7938 47.0308 36.4646C37.6866 41.8772 31.4028 52.001 31.4028 63.5984V141.918L45.4547 156.002L47.0308 157.582V63.5984C47.0308 54.9481 54.0284 47.9345 62.6588 47.9345C71.2892 47.9345 78.287 54.9481 78.287 63.5984Z" fill="#E6DAFE"/>
<path d="M62.6596 0.944336C51.2725 0.944336 40.5994 3.99777 31.4035 9.33244C25.5156 12.7401 20.2427 17.0829 15.7755 22.1626C6.0495 33.2073 0.147461 47.7165 0.147461 63.6001V110.592L15.7755 126.256V63.6001C15.7755 49.686 21.8118 37.1818 31.4035 28.5741C35.9131 24.5359 41.2072 21.3478 47.0316 19.2933C51.9157 17.5505 57.1817 16.6083 62.6596 16.6083C88.5508 16.6083 109.544 37.6493 109.544 63.6001C109.544 89.5507 88.5508 110.592 62.6596 110.592V126.256C97.1882 126.256 125.172 98.201 125.172 63.6001C125.172 28.9991 97.1882 0.944336 62.6596 0.944336Z" fill="#E6DAFE"/>
</svg>
