<svg width="150" height="96" viewBox="0 0 150 96" fill="none" xmlns="http://www.w3.org/2000/svg">
<path d="M101.971 56.3961L84.0335 74.4319C82.514 75.9597 82.5153 78.4435 84.0366 79.9697L97.7436 93.7212C100.08 96.0313 103.899 96.0313 106.235 93.7212L148.248 52.1799C150.584 49.87 150.584 46.0933 148.248 43.7834L106.235 2.27869C103.899 -0.0312094 100.08 -0.0312094 97.7436 2.27869L84.0365 16.0304C82.5153 17.5565 82.514 20.0403 84.0335 21.5681L101.971 39.6038C106.643 44.2235 106.643 51.7764 101.971 56.3961Z" fill="#0A6E5C"/>
<path d="M48.0291 56.3961L65.9665 74.4319C67.486 75.9597 67.4847 78.4435 65.9634 79.9697L52.2564 93.7212C49.9202 96.0313 46.1009 96.0313 43.7647 93.7212L1.75207 52.1799C-0.584025 49.87 -0.584025 46.0933 1.75207 43.7834L43.7647 2.27869C46.1009 -0.0312094 49.9202 -0.0312094 52.2564 2.27869L65.9635 16.0304C67.4847 17.5565 67.486 20.0403 65.9665 21.5681L48.0291 39.6038C43.357 44.2235 43.357 51.7764 48.0291 56.3961Z" fill="#21BF73"/>
<path d="M52.7347 51.4316C50.8428 49.5364 50.8428 46.4636 52.7347 44.5684L71.5746 25.6946C73.4664 23.7993 76.5336 23.7993 78.4254 25.6946L97.2653 44.5684C99.1572 46.4636 99.1572 49.5364 97.2653 51.4316L78.4254 70.3055C76.5336 72.2007 73.4664 72.2007 71.5746 70.3055L52.7347 51.4316Z" fill="#21BF73"/>
</svg>
