<svg width="24" height="25" viewBox="0 0 24 25" fill="none" xmlns="http://www.w3.org/2000/svg">
<path d="M15 10.5356C15 9.98564 15.45 9.53564 16 9.53564C16.55 9.53564 17 9.98564 17 10.5356C17 11.0856 16.55 11.5356 16 11.5356C15.45 11.5356 15 11.0856 15 10.5356ZM8 9.53564H13V7.53564H8V9.53564ZM22 8.03564V15.0056L19.18 15.9456L17.5 21.5356H12V19.5356H10V21.5356H4.5C4.5 21.5356 2 13.0756 2 10.0356C2 6.99564 4.46 4.53564 7.5 4.53564H12.5C13.41 3.32564 14.86 2.53564 16.5 2.53564C17.33 2.53564 18 3.20564 18 4.03564C18 4.24564 17.96 4.43564 17.88 4.61564C17.74 4.95564 17.62 5.34564 17.56 5.76564L19.83 8.03564H22ZM20 10.0356H19L15.5 6.53564C15.5 5.88564 15.59 5.24564 15.76 4.62564C14.79 4.87564 14 5.59564 13.67 6.53564H7.5C5.57 6.53564 4 8.10564 4 10.0356C4 11.9156 5.22 16.6856 6.01 19.5356H8V17.5356H14V19.5356H16.01L17.56 14.3856L20 13.5656V10.0356Z" fill="url(#paint0_linear_11427_26130)"/>
<defs>
<linearGradient id="paint0_linear_11427_26130" x1="20.0108" y1="5.9073" x2="4.12354" y2="18.2681" gradientUnits="userSpaceOnUse">
<stop stop-color="#76A0FC"/>
<stop offset="1" stop-color="#B9AAFD"/>
</linearGradient>
</defs>
</svg>
