<svg width="24" height="25" viewBox="0 0 24 25" fill="none" xmlns="http://www.w3.org/2000/svg">
<path d="M15.5 11.0356C16.3284 11.0356 17 10.3641 17 9.53564C17 8.70722 16.3284 8.03564 15.5 8.03564C14.6716 8.03564 14 8.70722 14 9.53564C14 10.3641 14.6716 11.0356 15.5 11.0356Z" fill="url(#paint0_linear_11427_26133)"/>
<path d="M8.5 11.0356C9.32843 11.0356 10 10.3641 10 9.53564C10 8.70722 9.32843 8.03564 8.5 8.03564C7.67157 8.03564 7 8.70722 7 9.53564C7 10.3641 7.67157 11.0356 8.5 11.0356Z" fill="url(#paint1_linear_11427_26133)"/>
<path d="M15.5 11.0356C16.3284 11.0356 17 10.3641 17 9.53564C17 8.70722 16.3284 8.03564 15.5 8.03564C14.6716 8.03564 14 8.70722 14 9.53564C14 10.3641 14.6716 11.0356 15.5 11.0356Z" fill="url(#paint2_linear_11427_26133)"/>
<path d="M8.5 11.0356C9.32843 11.0356 10 10.3641 10 9.53564C10 8.70722 9.32843 8.03564 8.5 8.03564C7.67157 8.03564 7 8.70722 7 9.53564C7 10.3641 7.67157 11.0356 8.5 11.0356Z" fill="url(#paint3_linear_11427_26133)"/>
<path d="M11.99 2.03564C6.47 2.03564 2 6.51564 2 12.0356C2 17.5556 6.47 22.0356 11.99 22.0356C17.52 22.0356 22 17.5556 22 12.0356C22 6.51564 17.52 2.03564 11.99 2.03564ZM12 20.0356C7.58 20.0356 4 16.4556 4 12.0356C4 7.61564 7.58 4.03564 12 4.03564C16.42 4.03564 20 7.61564 20 12.0356C20 16.4556 16.42 20.0356 12 20.0356ZM12 17.5356C14.33 17.5356 16.32 16.0856 17.12 14.0356H15.45C14.76 15.2256 13.48 16.0356 12 16.0356C10.52 16.0356 9.25 15.2256 8.55 14.0356H6.88C7.68 16.0856 9.67 17.5356 12 17.5356Z" fill="url(#paint4_linear_11427_26133)"/>
<defs>
<linearGradient id="paint0_linear_11427_26133" x1="20.0108" y1="5.58476" x2="3.51715" y2="17.7757" gradientUnits="userSpaceOnUse">
<stop stop-color="#76A0FC"/>
<stop offset="1" stop-color="#B9AAFD"/>
</linearGradient>
<linearGradient id="paint1_linear_11427_26133" x1="20.0108" y1="5.58476" x2="3.51715" y2="17.7757" gradientUnits="userSpaceOnUse">
<stop stop-color="#76A0FC"/>
<stop offset="1" stop-color="#B9AAFD"/>
</linearGradient>
<linearGradient id="paint2_linear_11427_26133" x1="20.0108" y1="5.58476" x2="3.51715" y2="17.7757" gradientUnits="userSpaceOnUse">
<stop stop-color="#76A0FC"/>
<stop offset="1" stop-color="#B9AAFD"/>
</linearGradient>
<linearGradient id="paint3_linear_11427_26133" x1="20.0108" y1="5.58476" x2="3.51715" y2="17.7757" gradientUnits="userSpaceOnUse">
<stop stop-color="#76A0FC"/>
<stop offset="1" stop-color="#B9AAFD"/>
</linearGradient>
<linearGradient id="paint4_linear_11427_26133" x1="20.0108" y1="5.58476" x2="3.51715" y2="17.7757" gradientUnits="userSpaceOnUse">
<stop stop-color="#76A0FC"/>
<stop offset="1" stop-color="#B9AAFD"/>
</linearGradient>
</defs>
</svg>
