<svg fill="none" height="47" width="205" xmlns="http://www.w3.org/2000/svg"><g fill="#fff"><path clip-rule="evenodd" d="M4.6 18.57c2.836-3.479 7.225-5.857 13.097-5.857h24.47l.001 4.431v4.431h-7.79v7.82c0 7.662-6.04 16.68-16.681 16.68-5.344 0-9.612-2.507-12.456-5.715C2.476 37.243.784 33.165.784 29.395c0-3.405 1.103-7.497 3.816-10.826zm20.916 3.005h-7.82c-3.25 0-5.102 1.213-6.227 2.594-1.247 1.53-1.823 3.562-1.823 5.226 0 1.297.682 3.345 2.225 5.085 1.464 1.65 3.437 2.734 5.826 2.734 4.823 0 7.819-4.072 7.819-7.82zm19.34-5.817V.94h5.86v14.818z" fill-rule="evenodd"/><path d="M66.774 27.003c.176.308.403.56.681.757.278.196.598.34.96.434a4.5 4.5 0 0 0 1.126.14c.278 0 .57-.032.876-.098a2.95 2.95 0 0 0 .834-.308c.251-.14.46-.327.626-.56.167-.234.25-.528.25-.884 0-.597-.394-1.046-1.182-1.345-.788-.298-1.887-.597-3.295-.896a19.1 19.1 0 0 1-1.683-.463 5.683 5.683 0 0 1-1.46-.7 3.385 3.385 0 0 1-1.03-1.093c-.26-.44-.389-.976-.389-1.612 0-.933.181-1.7.543-2.298a4.019 4.019 0 0 1 1.432-1.415 6.247 6.247 0 0 1 2.002-.728c.742-.14 1.502-.21 2.28-.21.78 0 1.535.074 2.267.223.733.15 1.386.402 1.96.757a4.532 4.532 0 0 1 1.433 1.415c.38.589.608 1.332.682 2.228h-3.755c-.055-.766-.343-1.284-.862-1.556-.52-.27-1.131-.405-1.835-.405a6.66 6.66 0 0 0-.724.042c-.26.028-.496.088-.71.182a1.462 1.462 0 0 0-.541.406c-.15.178-.223.416-.223.714 0 .356.13.645.39.87.259.223.597.405 1.014.545s.895.267 1.432.378c.538.113 1.085.234 1.641.365.575.13 1.135.29 1.683.476a5.522 5.522 0 0 1 1.46.743 3.6 3.6 0 0 1 1.03 1.149c.259.458.389 1.023.389 1.695 0 .953-.19 1.752-.57 2.397a4.593 4.593 0 0 1-1.488 1.555 6.075 6.075 0 0 1-2.1.827 12.182 12.182 0 0 1-4.853-.014 6.42 6.42 0 0 1-2.128-.841 4.784 4.784 0 0 1-1.53-1.555c-.398-.645-.616-1.453-.653-2.425h3.755c0 .43.089.8.265 1.108zm10.57-13.12v-3.35h3.806v3.35zm3.806 2.289v14.796h-3.805V16.172zm16.258 15.82a5.074 5.074 0 0 1-1.016 2.13c-.52.659-1.27 1.217-2.253 1.674-.983.458-2.3.686-3.95.686a8.989 8.989 0 0 1-2.157-.271 6.74 6.74 0 0 1-2.003-.844 4.978 4.978 0 0 1-1.503-1.473c-.399-.6-.626-1.32-.681-2.159h3.923c.185.763.547 1.292 1.085 1.588.538.295 1.159.443 1.864.443 1.113 0 1.925-.343 2.435-1.03.51-.686.755-1.553.737-2.601V28.19h-.057a3.958 3.958 0 0 1-1.822 1.73 5.77 5.77 0 0 1-2.49.557c-1.076 0-2.004-.195-2.783-.586a5.307 5.307 0 0 1-1.92-1.6c-.5-.677-.867-1.469-1.099-2.374a11.53 11.53 0 0 1-.347-2.874c0-.953.134-1.873.403-2.76a7.285 7.285 0 0 1 1.183-2.344 5.733 5.733 0 0 1 1.934-1.615c.77-.401 1.655-.6 2.657-.6.945 0 1.775.18 2.49.543.713.362 1.311.972 1.794 1.829h.056v-1.973h3.756v13.84c0 .59-.08 1.267-.236 2.03zm-5.412-4.918c.427-.228.78-.533 1.057-.915.278-.38.487-.814.626-1.3a5.53 5.53 0 0 0 .21-1.53c0-.61-.056-1.187-.168-1.73a4.407 4.407 0 0 0-.556-1.445 2.928 2.928 0 0 0-1.03-1c-.427-.248-.965-.372-1.613-.372-.557 0-1.035.114-1.433.343-.4.23-.733.539-1.002.93-.269.39-.464.839-.584 1.343a6.787 6.787 0 0 0-.181 1.588c0 .534.05 1.062.153 1.587.102.524.278.996.529 1.415.25.42.579.762.987 1.03.408.267.918.4 1.53.4.557 0 1.048-.115 1.475-.343zm11.634-10.958v1.968h.056a5.673 5.673 0 0 1 1.897-1.743c.74-.412 1.587-.618 2.543-.618.918 0 1.757.178 2.515.534.76.356 1.335.983 1.729 1.883.431-.637 1.016-1.199 1.757-1.687.739-.486 1.615-.73 2.627-.73.768 0 1.48.094 2.136.28a4.308 4.308 0 0 1 1.687.9c.468.413.833.951 1.096 1.616.262.665.394 1.466.394 2.402v9.722h-3.991V22.41c0-.486-.019-.946-.056-1.377a2.943 2.943 0 0 0-.309-1.124 1.885 1.885 0 0 0-.745-.758c-.328-.188-.773-.28-1.335-.28-.563 0-1.017.107-1.363.322a2.34 2.34 0 0 0-.815.843c-.197.347-.328.74-.394 1.18s-.098.885-.098 1.335v8.092h-3.991v-8.148c0-.43-.01-.857-.028-1.279a3.586 3.586 0 0 0-.239-1.166 1.796 1.796 0 0 0-.703-.857c-.328-.215-.81-.323-1.447-.323-.187 0-.435.042-.745.126a2.476 2.476 0 0 0-.899.478c-.291.235-.539.572-.745 1.012s-.309 1.016-.309 1.729v8.429h-3.99V16.117h3.765zm20.147 4.455c.055-.934.287-1.71.693-2.326a4.733 4.733 0 0 1 1.55-1.485 6.714 6.714 0 0 1 2.119-.799 11.94 11.94 0 0 1 2.368-.238c.719 0 1.448.052 2.187.154a6.626 6.626 0 0 1 2.022.603 3.989 3.989 0 0 1 1.495 1.247c.388.532.582 1.238.582 2.115v7.539c0 .654.037 1.28.111 1.877.073.599.202 1.047.387 1.345h-3.987a5.98 5.98 0 0 1-.277-1.4 5.107 5.107 0 0 1-2.215 1.372 8.804 8.804 0 0 1-2.603.393 6.96 6.96 0 0 1-1.911-.252 4.335 4.335 0 0 1-1.55-.785 3.631 3.631 0 0 1-1.039-1.345c-.25-.542-.374-1.186-.374-1.933 0-.823.143-1.5.43-2.033a3.624 3.624 0 0 1 1.107-1.275c.453-.317.97-.556 1.551-.714a16.382 16.382 0 0 1 1.758-.378 30.372 30.372 0 0 1 1.745-.225c.573-.056 1.08-.14 1.524-.252.442-.112.793-.276 1.052-.49.258-.216.378-.528.36-.94 0-.429-.07-.77-.208-1.022a1.541 1.541 0 0 0-.554-.589 2.172 2.172 0 0 0-.803-.28 6.519 6.519 0 0 0-.983-.07c-.776 0-1.384.168-1.828.504-.442.337-.701.897-.775 1.682zm9.084 2.942a1.77 1.77 0 0 1-.624.35 6.319 6.319 0 0 1-.803.211c-.286.056-.586.103-.9.14a16.4 16.4 0 0 0-.941.14 7.14 7.14 0 0 0-.872.224c-.287.094-.536.22-.748.378a1.79 1.79 0 0 0-.512.603c-.13.243-.194.551-.194.925 0 .355.064.654.194.897.129.243.304.434.526.574.221.14.48.239.775.295.296.056.6.084.914.084.776 0 1.375-.13 1.8-.392s.738-.575.942-.94a3.02 3.02 0 0 0 .373-1.107 7.75 7.75 0 0 0 .07-.896zm11.164-4.108h.083c.111-.359.295-.755.555-1.19a4.91 4.91 0 0 1 1.025-1.203 5.503 5.503 0 0 1 1.537-.92c.6-.245 1.288-.369 2.064-.369 1.089 0 2.036.208 2.839.624a5.794 5.794 0 0 1 1.994 1.67c.526.7.919 1.512 1.178 2.436.258.926.388 1.898.388 2.918 0 1.114-.13 2.134-.389 3.059s-.653 1.724-1.181 2.393a5.44 5.44 0 0 1-1.999 1.572c-.805.378-1.754.567-2.846.567-1.185 0-2.24-.265-3.165-.793-.926-.528-1.601-1.388-2.027-2.578h-.055l-.001 8.242H143v-19.77h1.025zm5.25 10.622c.925 0 1.726-.18 2.402-.539a4.782 4.782 0 0 0 1.666-1.444 6.366 6.366 0 0 0 .972-2.11 9.957 9.957 0 0 0 .319-2.564 9.96 9.96 0 0 0-.305-2.45 6.818 6.818 0 0 0-.945-2.152 4.893 4.893 0 0 0-1.652-1.53c-.676-.386-1.495-.58-2.457-.58-.945 0-1.75.189-2.417.566a4.742 4.742 0 0 0-1.625 1.501 6.407 6.407 0 0 0-.902 2.138 11.076 11.076 0 0 0-.278 2.508c0 .868.083 1.704.25 2.506.167.803.449 1.511.847 2.124a4.379 4.379 0 0 0 1.611 1.474c.676.367 1.514.552 2.514.552zm9.379-10.674h.084c.131-.47.368-.912.714-1.327a5.034 5.034 0 0 1 1.259-1.072 6.208 6.208 0 0 1 1.652-.692 6.646 6.646 0 0 1 1.889-.212v1.073c-.56-.075-1.199-.018-1.918.17-.718.188-1.404.602-2.057 1.242-.261.282-.489.555-.685.818a4.004 4.004 0 0 0-.49.875 5.5 5.5 0 0 0-.308 1.072 9.333 9.333 0 0 0-.14 1.412v7.932h-1.063V16.135h1.063zm8.135-5.872v-2.947h1.269v2.947zm0 17.487v-14.71h1.269v14.71zm4.123-14.903h1.061v2.978h.055c.112-.454.307-.884.586-1.291s.619-.76 1.019-1.064a4.806 4.806 0 0 1 2.888-.965c.688 0 1.283.09 1.786.27.502.18.93.416 1.283.71.354.293.632.623.837.992s.345.742.419 1.12h.055c.428-1.021 1-1.791 1.717-2.311.716-.52 1.66-.78 2.832-.78.651 0 1.251.099 1.8.298a3.772 3.772 0 0 1 1.423.908c.4.406.712.921.935 1.545s.335 1.362.335 2.213v9.955h-1.06V20.66c0-.926-.14-1.654-.419-2.183-.279-.53-.609-.932-.99-1.206-.382-.274-.763-.444-1.144-.51a5.517 5.517 0 0 0-.879-.1c-.652 0-1.251.114-1.8.341a3.818 3.818 0 0 0-1.424 1.021c-.399.454-.711 1.017-.935 1.688-.223.671-.334 1.442-.334 2.311v8.623h-1.061V20.66c0-.908-.135-1.63-.405-2.17-.27-.539-.585-.94-.948-1.206a2.82 2.82 0 0 0-1.116-.51 4.957 4.957 0 0 0-.907-.113 4.33 4.33 0 0 0-1.562.312 4.348 4.348 0 0 0-1.479.963c-.447.436-.809.993-1.088 1.674-.279.68-.418 1.485-.418 2.411v8.622h-1.061V16.065zm21.676 7.423v.17c0 .85.112 1.662.336 2.437.224.774.554 1.455.992 2.04a4.731 4.731 0 0 0 1.65 1.388c.661.34 1.431.51 2.307.51 1.435 0 2.572-.382 3.411-1.147s1.416-1.828 1.733-3.188h1.06c-.316 1.7-.999 3.003-2.049 3.91s-2.44 1.36-4.169 1.36c-1.059 0-1.984-.194-2.775-.58a5.656 5.656 0 0 1-1.979-1.587c-.53-.67-.925-1.464-1.186-2.38-.26-.917-.39-1.904-.39-2.962 0-1.02.134-1.997.404-2.932a7.426 7.426 0 0 1 1.213-2.466 6.022 6.022 0 0 1 2.022-1.7c.808-.425 1.76-.638 2.858-.638 1.004 0 1.891.19 2.662.567a5.598 5.598 0 0 1 1.939 1.545 6.92 6.92 0 0 1 1.185 2.266 9.2 9.2 0 0 1 .404 2.762c0 .095-.005.204-.014.326a4.227 4.227 0 0 0-.013.298h-11.601zm10.541-.935a8.886 8.886 0 0 0-.392-2.253 5.616 5.616 0 0 0-.992-1.87 4.973 4.973 0 0 0-1.594-1.289c-.625-.32-1.338-.482-2.139-.482-.858 0-1.613.166-2.265.496a5.122 5.122 0 0 0-1.65 1.303 5.841 5.841 0 0 0-1.034 1.885 8.977 8.977 0 0 0-.448 2.21z"/></g></svg>