<?xml version="1.0" encoding="UTF-8"?>
<svg width="1200pt" height="1200pt" version="1.1" viewBox="0 0 1200 1200" xmlns="http://www.w3.org/2000/svg">
 <g fill-rule="evenodd">
  <path d="m188.86 135.52c-0.70703 0.15625-1.6211 0.14453-1.5 1.1523 0.99609 0.085937 1.8984 0.12109 1.5-1.1523z"/>
  <path d="m1085.2 387.14c-1.8359-1.0547-1.4531-5.2305-1.5352-6.8984-4.5586-0.83984-4.4297 6.2539-8.0156 7.668-2.5195-3.5156-9-3.0234-11.102-6.8984-14.316 5.3633-31.465 7.4414-46.68 12.625-1.5859 0.070313-1.1758-1.8711-3.0352-1.5234-14.879 4.8945-31.211 8.7617-47.051 12.625-12.938 3.1562-26.867 5.4961-40.906 9.1797-4.0781 1.0547-10.754 4.2852-14.531 3.8047-2.5078-0.28906-6.8281-4.9805-9.9492-7.2617-8.0391-5.9023-11.797-9.4922-19.105-15.277-3.3711-2.6641-7.3203-5.1016-9.5742-7.6445-4.7266-5.3633-7.4766-12.336-12.254-17.605-1.957 0.58984-4.3789 0.625-6.1211 2.293-2.5312-6.1562-4.6562-18.359-12.602-13.367-1.5352 0.60156-1.5234 2.8086-2.2812 4.1875 1.9062 2.7734 3 6.4336 4.5703 9.5625-0.28906 1.7539-1.5234 2.5664-1.9062 4.1875 2.2188 12.469 0.43359 23.965 3.0586 37.5-14.113-6.6484-30.898-12.516-43.598-20.652-2.6758-1.6914-4.0547-4.668-8.7852-3.4336-1.5234 1.2617-2.6055 3-4.2109 4.1992-4.9453-3.6719-13.176-0.82812-14.52 4.5703 0.75781 1.8945 1.8945 3.457 3.4219 4.5977-1.7891 2.1016-5.1367 5.0273-2.293 8.4375 2.9141 0.51562 5.9531 0.89844 8.7852 1.5117-0.75781 2.8438-3.8047 3.4922-3.4453 7.2617 0.25391 2.3164 6.7305 9.3125 8.4258 11.473 9.5391 12.336 16.02 25.754 24.852 39 2.8672 4.332 5.9766 8.6641 8.7969 13.008 5.5312 8.5664 13.164 15.781 15.684 26.375 0.3125 0.3125 0.85156 0.43359 1.5234 0.40625 1.4297 4.9688 3.8633 8.832 5.7344 13.391-4.5859 1.8008-10.055 1.9688-15.277 2.2812-5.0391 0.28906-9.8281-0.058593-14.914 0.38281-15.816 1.4531-31.008 0-45.91 1.5352-6.168-1.9688-11.34 0.20312-17.953 0.38281-3.6367 0.085937-7.3555-0.53906-11.09-0.38281-28.488 1.1992-61.152 2.7109-91.391 4.2227-3.0234 0.15625-6.3594-0.66016-9.5625-0.40625-7.0664 0.5625-13.766 2.4375-20.27 1.9453-3.1445-0.26562-5.7852-1.7539-7.6445 0.35938-2.3164 0.61328-4.5586-0.33594-6.8867-0.35938-4.2227-0.085938-7.7656 1.4297-10.32 1.5117-1.0547 0.046875-2.4102-0.71875-3.4453-0.76953-2.1016-0.085938-4.3672 0.79297-6.5039 0.76953-21.133-0.13281-44.004-2.1836-66.168 1.5352-1.8477 1.7148-4.7148 2.3867-6.4805 4.2109-11.902-1.1055-26.941 0.66016-39.383 1.5117-2.2305 0.15625-3.8164 0.43359-5.3516 1.5352-1.0312 0.10937 0.99609-1.4766-0.79297-1.1523 0.28906 1.3789-0.64844 1.3789-0.38281 0-3.1328 2.0039-12.961 4.1758-15.277 2.3047-3.625 0.89844-13.344 2.2305-21.047 3.0586-3.8164-7.1289-6.0469-15.852-10.703-22.188-0.21484-0.92578-0.5625-1.7383-0.37109-3.0352-2.9766-5.3633-7.1992-11.387-8.0273-17.605-0.98438-0.046875-1.8359-0.20312-2.293-0.76953-0.57422-1.4414 1.6914-0.070313 1.1523-1.5352-5.9648-6.6719-5.1836-15.469-11.867-22.945-0.035156-0.92578 0.49219-0.66016 0.38281 0 0.38281-2.5664-2.3281-4.0781-2.2812-6.875-2.293-4.0781-5.125-7.6445-7.2852-11.832-0.68359 0.046875-0.22656 1.2852-0.75781 1.5117-1.043-2.4961-0.3125-4.9688-2.2812-6.875-1.043-0.26563 0.27734 1.8008-0.79297 1.5117 0.57422-0.13281-1.2734-1.9805-1.1289-1.5117-0.37109-1.1523 0.89844-1.4414 0.76953-2.6758-0.33594-3.0234-4.5859-5.5195-3.8164-9.5625-2.1953 1.3789-1.7539-2.9023-3.4453-3.8281 0.10938-1.332 1.0195 1.3789 1.1523 0-0.14453-1.1992-0.89844-2.5195-1.5469-1.1289-0.32422-3.3594-2.3281-6.6719-3.8281-7.6445-1.0312-3.4219-1.6328-7.2461-4.1875-9.1914 0.28906-5.0742-3.3125-5.8203-3.4453-9.5625-2.4258 0.25391-1.668-2.6641-3.4336-3.0586 0.070313-1.2227-0.69531-1.6211-0.40625-3.0586-2.5195-2.9297-3.8281-7.1289-4.957-11.461-0.75781-0.15625-0.035156-1.7539-1.5469-1.1523 0.49219-3.8984-0.81641-4.7539-2.6758-6.1094-6.3711-17.09-15.047-33.91-21.035-50.102-0.19141-1.2109-1.2344-1.5586-2.2812-1.9062 0.74219-2.1367-1.0664-3.1914-1.9336-4.5977-1.2617-2.1016-0.71875-5.7969-3.0469-7.2617 0.75781-4.668-3.3125-6.2148-3.4453-11.09-2.375 0.68359-1.5-4.8594-4.1992-3.8281 0.76953-1.8945 0.46875-3.1797-0.75781-5.3516-0.23828-0.39453-1.332-0.98438-1.5352-1.5117-0.76953-1.8594 0.26562-5.375-2.293-4.2109-0.28906-1.4297 0.92578-2.125 0-3.0586-3.1328-5.5312-6.168-11.184-8.4102-17.578-1.2461-0.34766-0.51562 1.2461-1.5352 1.1406-1.0547-1.0195 0.28906-0.98438 0.75781-1.5352-4.6914-9.8398-11.375-18.371-13.379-29.832 0.82812-0.80469 1.332-1.9805 1.5117-3.4336-15.422-17.184-30.312-34.945-47.027-50.855-3.0234-6.0117-7.1055-10.992-10.32-16.824-1.2109 0.34766-1.2109-1.7383-2.6641-0.75781-3.6133-6.5898-8.2578-12.133-11.484-19.129-0.44531 0.070312-0.3125 0.69531-0.35938 1.1406 0.011719-1.5859-1.3438-1.4141-2.3047-2.6641-0.80469-1.0195-0.88672-4.3789-2.293-1.9219-1.0195 1.668 1.5234 0.43359 1.1523 0 1.2109 1.3906 0.76953 7.2734 3.0469 6.8984-0.73047 3.1914 0.86328 5.1836 1.5352 8.0156-2.1016 0.42187-1.6914-2.1016-3.0469-0.38281-6.0586-4.5586-10.645-10.391-16.066-16.066-4.6094-4.8242-11.629-7.4766-14.16-14.543-8.7852-3.9492-13.5-12-21.035-17.195-0.46875-4.4414-3.2773-7.5-7.6445-6.875-5.4727-2.2422-16.691-19.246-22.188-18.758-2.7734 0.25391-6.9375 1.957-7.6562 4.2109-1.5 4.8242 7.2344 6.6133 8.8203 10.703 0.25391 1.9453-1.4414 1.9219-1.5352 3.457-1.5234 17.629-0.98438 32.676-2.6875 48.551-0.61328 5.6992-2.207 11.426-2.6758 17.23-1.2344 15.145-3.4219 30.301-4.9688 45.887-0.51562 5.0039-1.3906 9.3242-1.5234 14.52-0.085937 2.7344-0.49219 5.5547-0.76953 8.4258-0.83984 7.8359-1.7656 16.957-3.8281 25.246-2.375 9.5156-6 19.234-4.5977 27.504 1.8125 2.1016 5.0039 3.7422 8.4258 3.0586 1.1055-1.0312 0.71875-3.6016 1.1523-5.3398 2.8438 18.215 10.645 33.984 16.043 50.867 9.0703 17.062 15.898 34.559 24.863 50.844 6.5508 11.93 13.883 23.688 21.793 34.801 14.184 19.934 28.273 41.664 43.98 60.805 6.6133 12.875 17.426 21.574 23.711 34.801 3.6953 2.5195 5.4609 7.0312 8.3984 10.32-0.61328 2.3047-3.1328 2.543-3.0352 4.9922 0.14453 3.8047 7.0938 3.9492 10.309 6.0859 4.8008 3.2266 6 8.9531 8.0273 12.238 6.3008 6.3359 10.922 14.34 16.453 21.422 3.1914 1.7773 9.6484 5.1602 12.996 1.1523-0.27734-3.3125-3.4805-4.8477-5.3516-6.875-3.5508-3.875-5.6406-8.6875-8.7969-13.008 7.5703 3.6484 14.004 8.4727 20.676 13.008 1.8945-0.023437 3.8047 0 3.8047-1.9219 19.223 8.6992 39.719 16.117 56.23 27.516 3.4062 29.449 5.1953 58.848 7.6211 87.574 0.97266 10.992 1.5234 22.223 1.1758 32.855-0.50391 14.207 0.26562 26.867-4.2227 38.652 1.0195 4.4648-2.4375 7.4414-1.9219 12.625 1.332 1.0781 2.9531 1.8945 5.3516 1.8945-0.42188 4.4141 0.64844 8.0156 1.1523 11.844 4.8125 1.9922 11.867 1.8008 10.32-4.957 2.6055-1.4883 5.6289-0.67188 8.8086-1.1758 0.51562 11.363 0.45703 24.348 0 37.117-1.9219 51.758-3.8633 107.89-2.6875 161 0.44531 19.344 0.16797 37.969 0 55.812-0.058594 6.5391 1.5977 13.129 0.76953 19.129-0.30078 2.207-2.0508 4.3203-2.3047 6.4922-0.70703 6.9375 2.6641 15.551 3.8398 21.816-0.49219 1.2969-0.89844 2.6641-1.5352 3.8281 0.88672 2.3867 1.3555 3.3359 1.1523 5.3633 1.2227-2.0273 3.3008 1.6211 6.8867 0.71875-1.5859 6.3594 3.7422 12.949 9.5625 9.5625 0.70703-5.7617 0.46875-10.273 1.1406-16.055 1.6094-0.22656 2.5938 0.23828 3.4688 0.76953-0.10938 1.7148-0.625 2.9766-0.40625 5.0039 2.7852 3.6953 7.2227 7.1289 13.008 5.6875 4.043-12.59 2.9141-27.91 3.4453-45.504 0.86328-27.898-1.6797-54.77-1.9219-82.199-0.20312-25.379-1.0938-52.836-1.1523-76.824 3.1914-42.516-1.668-76.559 3.457-114.02 20.82-2.9766 44.965-4.0078 69.203-5.6875 1.4414 24.625-2.7852 51.637-1.9062 79.141 0.35938 10.68-1.0938 21.949-1.5234 32.855-1.2344 31.969-0.875 64.621-2.3047 92.93-0.58984 12.035 0.20312 25.656-1.1406 36.742 1.1758 6.1797 0.22656 17.305 0.78125 25.609 0.21484 3.5156 1.6211 6.6836-1.1641 9.5625-0.79297 9.1562-2.6875 18.301 0 25.246 1.9688 0.68359 3.5039 1.8477 6.1211 1.8945 0.83984 5.4609 2.3398 12.133 9.5625 9.9609 1.7266-2.6172 0.99609-7.3438 3.0586-8.0625 4.0547-1.4023 1.1875 6.0859 2.6641 10.367 1.4648 4.1055 7.1406 5.8555 9.5508 2.6641-0.011719-6.2656 0.63672-8.4844 0.39453-15.289 0.98438-1.8359 3.8281-1.8008 4.9688-3.4688-2.4961-9.0586-2.0039-23.039-1.5234-35.93 0.39453-10.559 1.3672-21.324 1.9219-31.379 2.7734-50.641 5.8555-104.16 5.7461-152.94-0.035156-11.449 1.3789-22.68 1.8828-34.402 0.73047-15.77 1.7383-31.609 3.457-47.426 48.371-3.2539 95.27-5.6875 144.57-7.2617 10.766-0.3125 21.457-0.75781 32.473-0.75781 2.1484 5.2305 1.3555 14.699 2.6758 20.652 0.34766 1.5352 2.5195 3.2031 4.6211 3.4219 2.4258 12.047 0.9375 23.543 2.293 37.066 0.91016 9.2539 0.60156 19.391 1.5352 26.82 1.4141 11.461 1.1406 23.27 1.5117 34.766 0.69531 21.059 0.92578 42.336 1.5234 62.352 0.57422 20.16 0.33594 41.797 0 61.547-0.070313 4.6914-1.5 9.7422 0.39453 13.789-2.5312 4.9062 0.28906 11.316-0.39453 16.055 0.81641 0.17969 0.73047-0.53906 0.76953-1.1289 0.78125 3.3711 0.16797 9.7812 1.5234 12.215 1.9922-1.3438 1.2852-4.4141 1.9219-6.5391 0.25391-0.80469 1.0547-1.8359 1.1406-2.6172 0.21484-1.9805-1.4766-4.0547 0.76953-5.0039 3.5273 4.9219-2.0898 29.578 1.9062 34.043 1.8242 2.0273 4.9453 1.2617 8.0273 0.75781 0.22656-2.5195-0.42188-4.8594 0.74219-5.7617 3.4922-0.17969 1.668 3.1562 3.4688 5.0039 3.0352-0.17969 5.4102 2.125 8.0273 1.1289 0.51562 4.5586-0.68359 12 3.0469 14.93 3.7578 0.13281 6.0117 1.4414 8.4258-0.76953-0.64844-14.555-0.94922-33-1.9219-47.027 0.13281-1.668 2.2578-1.3438 2.293-3.0586-1.7383-18.758-3.3828-40.262-3.8164-60.422-0.058594-2.5664 0.60156-5.0039 0.35938-7.668-2.1953-25.969-2.4844-55.766-3.793-82.199-0.50391-9.7812-1.1172-22.727-1.9062-31.379 1.5586-0.13281-0.83984-2.6641 0.74219-1.4883-2.1602-22.992-5.6055-63.215-5.7461-90.625 1.7148-0.40625 5.1133-1.8477 5.3516 0.34766 1.0078 0.097657 0.30078-1.4766 1.5469-1.1289 21.227-1.1289 47.902 0.046875 67.285 0 0.96094 4.6094-0.44531 7.7148 0 12.984 1.3672 1.8008 2.4375 3.9727 4.5703 5.0039 2.9023 21.469 3.2383 43.246 4.9922 65.375 2.0273 25.164 5.293 54.562 8.0273 82.199 0.73047 7.3438 0.35938 14.832 1.1523 22.188 0.71875 6.6836 1.5469 12.637 1.8945 19.129 0.57422 9.9609-0.35938 23.09 0 34.801 0.34766 9.7812 1.0547 20.062 1.1641 29.797 1.3906 1.8008 3.3711 3.0234 5.7461 3.8281 2.0156 15.012 2.9297 32.867 4.2109 50.102 1.2734 1.2969 2.0625 3.0234 3.8164 3.7812 2.0508-0.22656 2.7617-0.58984 4.2344-0.73047 2.2695-5.8086 0.17969-11.941 0.73047-19.117 3.0977 0.63672 6.6953 1.9805 8.7969-0.40625-2.4492-20.375-3.2656-42.109-2.6758-60.816 2.6406 22.273 1.5234 42.434 3.8281 61.992 3.6133 1.043 6.0977 2.5781 9.5391 1.1406-0.81641-12.719-1.9805-23.543-2.2812-33.648-0.035156-1.2227 0.49219-2.6992 0.37109-3.8281-0.070313-0.80469-1.1172-1.5234-1.1289-2.293-0.023438-1.0312 0.71875-2.0742 0.74219-3.0234 0.23828-5.0039-1.5352-10.547-1.5352-16.094 0-4.1523 0.20312-7.6211 0-11.449-0.058594-1.4883-0.097656-5.6055-0.35938-8.4375-0.17969-1.7539-1.4883-3.6953-1.5352-4.957-0.023438-0.85156 0.69531-2.2188 0.75781-3.0703 0.26562-4.0078-0.22656-9.3242-0.75781-13.754-0.20312-1.5352-0.070313-3.4805-1.5469-4.6094 2.0508-5.4961 0-11.352-0.38281-17.23-1.0664-17.723-2.2695-37.414-3.4219-55.043-1.9453-30.121-4.7773-63.254-7.2617-92.52-0.78125-9.1211-2.0898-20.027-2.6758-27.551 0.011719 0.22656 0.69531-1.9922 0.78125-1.5352-0.13281-0.63672-1.0195-0.046876-1.1758-0.35938-0.15625-0.35937 0.74219-0.44531 0.76953-0.39453-0.44531-0.94922-1.2617-2.0742-1.5469-3.4805-0.34766-1.9805 0.14453-4.5-0.35938-6.8516 5.3867-1.668 11.941-0.49219 19.117-1.5234 1.2461 3.0586-1.6094 7.2109-0.75781 10.727 0.96094 4.1523 6.3008 5.1953 10.703 4.1992-0.16797-7.6211 1.1172-13.297 1.5234-19.523 0.16797-2.3398-0.53906-5.3633-0.75781-8.375-0.40625-5.4609 0.23828-11.41-0.75781-18 0.058593-2.1602 2.4492 0.45703 1.8945-2.293-0.23828-1.9336-0.58984 1.3555-1.8945 0.76953 1.0078-1.8477-0.51562-3.2148 0.75781-3.0703-2.3047-18.527-1.2969-49.32-2.293-73.043 2.6289-8.3398-0.94922-17.23 0.75781-26.363 0.43359-2.293 4.8242-8.2305 7.2461-11.473 0.82812-1.0547 2.3633-1.6445 3.0859-2.6641 0.73047-1.0312 0.82812-2.6758 1.5117-3.8281 2.1367-3.5156 5.3398-7.0781 8.0625-10.727 2.6992-3.6133 5.1602-7.4141 7.6562-11.074 0.89844-1.3672 2.375-2.0898 3.4219-3.4453 3.4688-4.4023 5.5078-10.188 9.9492-13.008 5.9648-11.34 13.812-20.832 21.781-30.215 0.78125-3.5625 4.1172-5.2695 4.9805-7.6445 0.10937-0.51562 0.94922-0.3125 1.5352-0.35938 1.4297-5.5938 5.1367-8.9023 8.7734-12.266 1.9805-3.7422 3.7422-7.7148 7.668-9.5273 3.3008-6.2656 6.9844-12.156 12.227-16.465 0.46875-2.3633 2.543-4.8945 4.2344-7.2617 1.5859-2.3164 3.3594-4.8945 5.7227-6.1094 3.6836-8.2578 10.68-14.16 16.066-21.047 2.9766-3.8281 5.4375-8.0039 8.3984-11.855 2.8906-3.6953 5.7969-7.4141 8.7969-11.062 5.9648-7.2617 12.012-14.855 19.129-21.059v-1.8945c3.4062-3.1328 6.9375-8.0273 10.32-12.238 2.2188-2.7969 6.3242-6.2539 6.4922-8.7969 0.16406-2.957-3.9023-6.1133 1.543-7.6836zm-240.92 65.375c-1.9922-0.92578-3.5391-2.3164-4.5977-4.1992-1.2461-0.51562-4.2227-3.0117-3.0469-3.4336 2.9531 2.5078 8.207 2.7344 9.5508 6.8516-0.68359 0.24219-1.5586 0.21875-1.9062 0.78125zm-701.71-240.14c0.79297-2.4102 0.070313-6.2891 1.9062-7.6445 0.42188 3.6602 0.45703 7.0938 1.1406 9.5391-1.418-0.21484-2.582-0.70703-3.0469-1.8945zm4.9648-73.043h-1.9219c0.33594-1.5703-0.85156-4.7031 1.1758-4.5859 1.25 1.1289 1.1562 2.6055 0.74609 4.5859zm2.6797-15.66c-0.68359-1.2969-2.4609-0.48047-3.4336 0-1.6328-7.5703 5.8906-3.6953 3.4336 0zm107.83 151.8c-1.1289-0.51562-1.6562 0.21484-3.4453 0-1.1875-3.6484-4.8711-6.8281-4.9805-10.32 3.5742 2.6992 5.7109 6.8164 8.4258 10.32zm-7.25 61.559c-1.7539-0.53906-2.375-4.2344-2.293-5.3516 0.78125 1.7656 2.125 2.9766 2.293 5.3516zm-22.957-32.879c0.68359-3.457-4.0195-5.9141-3.0586-9.5742-0.070312 2.0039 1.8242 2.7852 2.6875 4.2227 0.21484 0.35938-0.25391 1.2109 0 1.5352 1.7539 2.375 5.1836 3.7188 6.8867 6.1094 1.1641 1.6211 1.7148 4.1875 2.6875 6.1445 3.1562 6.3711 8.4102 11.652 10.309 17.965-5.9531-7.7891-10.402-17.137-17.195-24.098-0.097656 0.30078-0.023437 0.76953-0.38281 0.78125-0.3125-1.0938 0.52734-0.99609 0.38281-1.9336-1.0078-0.17969-1.2969-0.28906-2.3164-1.1523zm-34.812-19.512c1.2852 1.1406 1.6445 4.1406 0 5.3633-0.023437-2.1602-0.62109-4.5 0-5.3633zm-25.582 6.5039c0.25391 1.9688 0.46875 4.4531 0.75781 7.2852-2.7852-0.64844-2.043-5.5234-0.75781-7.2852zm22.152 127.33c-6.4336-9.3125-11.438-20.148-17.965-29.426 0.45703-3.0117-3.4805-7.6211-2.3047-6.8984 6.0234 8.3164 11.629 17.902 16.836 26.762 1.5742 2.6602 5.582 5.8906 3.4336 9.5625zm1.9297-146.82c1.2461 1.4766 1.3672 2.8789 0 4.1992 0.51562 0.035156 0.82812-0.17969 1.1406-0.38281-0.33594 1.0547 0.79297 3.5898-0.76953 3.4453-0.20312-2.832-1.4609-4.3477-0.37109-7.2617zm0 149.53c3.7305 0.50391 4.5586 3.6719 6.875 7.2344 3.4688 5.4102 8.9141 10.078 8.4102 14.93-5.793-6.6836-10.508-14.484-15.285-22.164zm19.5 27.875c1.9336 1.6445 4.1172 3.0469 4.5703 6.1328-1.9062 0.097657-4.4023-4.4766-4.5703-6.1328zm-0.38281-216.43c0.070312-0.28906 0.3125-0.45703 0.76953-0.37109 0.070313 0.53906 0.82812 0.44531 1.1523 0.78125 6.6133 10.297 12.637 21.238 19.871 30.973 0.097657 1.3789 0.52734 1.4414 0 2.6641 2.7617-0.58984 3.5156 4.5234 4.9688 6.8867 0.23828 0.34766 1.3203 0.46875 1.5352 0.76953 2.7969 3.6367 5.1602 8.4609 6.8633 11.473-2.375 0.64844-3.8164 2.2695-4.1875 4.9688-7.3906-7.1523-9.4062-19.633-16.836-26.746-0.097656 1.8477-0.61328-0.37109-0.35937-1.1641-0.89844-0.50391-0.875 0.19141-1.5352-0.78125-0.32422-4.5859-0.69531-7.2617-3.8281-9.9375-1.5-7.8164-6.7109-11.895-8.4141-19.516zm45.109 279.16c0.74219 2.5664 4.0781 2.543 4.5977 5.3398-2.3789-0.69531-4.2734-3.8516-4.5977-5.3398zm-4.5977-63.074c-5.0156-13.344-12.289-24.422-19.117-35.965-1.668-6.2539-8.1367-12.984-9.5273-19.477 14.746 22.164 28.98 44.93 42.035 68.82-7.0781-1.6797-8.8438-10.367-13.391-13.379zm11.102-204.98c0.88672 0.25391 2.3047 0.76953 3.0586 0 2.9414 5.9883 8.1953 11.688 9.9375 17.594-4.2734-5.918-8.9062-11.484-12.996-17.594zm16.066 21.039c1.2734 3.4453 4.7773 6.6719 4.9805 9.9375-1.4766-0.023437-3.6133 0.17969-4.9805 1.5352-1.2227-2.6289-3.7812-3.8633-4.2109-7.2734 2.6289-0.16797 2.8086-2.8086 4.2109-4.1992zm-3.457 273.04c2.3516 0.79297 4.4648 2.6875 6.8867 4.2227 2.1016 1.2852 6.2266 2.0039 5.7227 4.957-4.0391-1.4297-11.984-4.332-12.609-9.1797zm14.148-102.49c-0.35938-0.78125-0.76953-1.5-1.1523-2.293 1.2031-0.27734 1.8125 1.9805 1.1523 2.293zm1.9336-46.262c-0.43359-0.38281-1.4531-2.1016-0.39453-2.6875-0.16797 0.98438 1.3672 2.1953 0.39453 2.6875zm40.152 71.113c-2.9766-2.8789-5.4258-6.3125-8.7969-8.7852-5.9766-12.383-12.805-23.914-18.348-36.707-1.1875 0.26562-0.74219-1.0547-1.9453-0.76953-1.2461-6.9961-6.625-15.852-9.168-23.328 5.3164 7.1641 9.0352 16.211 13.766 22.957 0.89844 4.5703 3.4219 7.5703 5.7461 10.703 6.2383 9.3125 10.223 20.879 16.812 29.832-0.16797 2.582 2.7383 4.1406 1.9336 6.0977zm65.77 188.93c1.4141 1.4883 3.0586 2.7852 4.5859 4.1875-1.7383 0.27734-2.9648 0.45703-5.3633 0.76953 0.046876-1.8516-0.28906-4.1055 0.77734-4.957zm-1.1641 21.406c3.6719 0.097656 4.8008 0.097656 7.2852 0.35938-1.0078 1.8008-4.0312 4.8594-4.2227 8.7852 0.48047 1.2227 2.6172 2.293 1.9219 3.4336-2.0039-0.23828-2.8906 0.67188-4.9805 0.39453-0.003906-4.3086-0.003906-8.6406-0.003906-12.973zm7.668 102.09c-2.8906 0.89844-5.0898 0.44531-8.8086 0.75781-0.19141-1.2227 0.70703-1.2969 0.39453-2.6641 2.4414 1.2188 9.8672-3.1016 8.4141 1.9062zm-1.918-52.395c-2.2812 0.14453-3.5273 0.35938-4.5859 2.293-0.070312-9.7812-0.89844-14.867-0.78125-26.016 1.7539 0.19141 4.2227-0.34766 5.3633 0.40625-0.38281 3.2891-3.5039 4.6445-2.293 8.3867 1.6094 1.5703 3.6367 2.7461 5.3516 4.2344-2.2852 2.3438-5.8984 6.6875-3.0547 10.695zm1.918-79.906c-3.1094-0.53906-4.7148 1.6328-6.5039 4.1992 0.035156-5.5938 0.58984-12.301 1.1523-17.977 2.3516-0.070312 5.1602-0.99609 6.4922 0.38281-6.6484 1.0078-6.1914 12.277-1.1406 13.395zm11.848-29.438c0.28906-0.085937 0.45703-0.33594 0.39453-0.76953h1.5117c0.44531 1.1523-1.6211 1.6211-1.9062 0.76953zm2.2773 0c-0.34766-1.1758 2.5195-1.0078 2.3047-0.76953-0.66016 0.33594-0.97266 1.0586-2.3047 0.76953zm9.9609 184.68v-7.2461h1.1406c-0.24219 2.5547-0.27734 5.3164-1.1406 7.2461zm12.613-184.68c-1.2969-2.2812-4.2461 0.13281-6.1094-1.5352 3.9258-0.26562 6.2383-1.0078 11.074-0.40625-1.9062 0.40625-3.3477 1.2695-4.9648 1.9414zm29.062 28.68c0.80469-0.73047 2.4961-0.26562 3.0703 0.35938-0.92188-0.22656-2.7812 0.49219-3.0703-0.35938zm22.57 126.97c3.7422-1.6797 9.2773-1.9453 12.996-1.1875-4.3789 0.91016-8.1562 0.41797-12.996 1.1875zm13.766-1.1875c0.046875-1.6211 2.9414-0.34766 4.2227-0.75781-0.070313 1.6328-2.9492 0.35937-4.2227 0.75781zm15.684 111.7c0.40625-3.0234-0.67187-5.9531 0.76953-7.3086-0.30078 2.3906 0.70703 6.0859-0.76953 7.3086zm0-7.668v-3.0703c1.1992-0.41016 1.1992 3.4766 0 3.0703zm4.1758-71.508c-1.3789-7.2227-1.4531-14.879-2.6641-22.957 1.2109-0.046875 3.457-0.63672 4.9805 0-0.68359 8.3047-1.6211 15.469-2.3164 22.957zm6.9141 81.422c-0.30078-6.2656 0.43359-11.23 0.75781-18.742 0.73047-16.738 0.34766-32.914 3.0586-49.691-0.78125 21.453-1.5391 46.074-3.8164 68.434zm4.1992-83.727c-0.26562-1.7539 0.33594-5.7227 1.1641-7.668 0.3125 1.8594-0.15625 5.9531-1.1641 7.668zm76.105-49.32c6.7422-0.13281 12.215-1.4883 18.742 0.35938-5.6875 0.17969-14.242 1.8984-18.742-0.35938zm19.883 0.35938c0.53906-1.6328 4.1289-0.17969 4.9688-1.5352 0.50391 0.68359 1.5234 0.80469 1.9219 1.5352 0.73047-0.85156 2.2812-0.85156 3.0469 0-3.8672 1.082-5.5117-0.53906-9.9375 0zm30.215-18.719c0.625-0.49219 3.3594-0.85156 3.4453 0.35938-1.7188-0.16797-2.6875 0.050781-3.4453-0.35938zm19.105 9.2031c1.5586 0.40625 2.1133-0.17969 4.1992 0-0.37109 1.6328-3.4688 1.3086-4.1992 0zm7.2695 0.35938c0.46875-0.046875 0.89844-0.14453 0.75781-0.76953 1.0078 1.7266 3.7188-1.4414 4.9805 0.76953-1.6797 1.6211-3.5391 0.54297-5.7383 0zm-15.285-141.11c-0.63672 0.26562 0.070312 1.8945-1.1523 1.5352-0.96094-1.7148-5.543-1.0781-7.2852 0.76953-7.5469-1.7148-18.793 2.8555-28.68 2.2695 1.6328-1.5703 4.8477-2.6406 3.8281-5.7227 15.191 0.45703 36.574-1.9805 54.301-0.76953-7.6914 0.20312-12.555 4.2812-21.012 1.918zm44.746 21.793c1.6797-1.3203 2.2812 1.8242 4.1992 0.38281-0.38281 1.6562-3.9844 0.58594-4.1992-0.38281zm12.602 0.76562c-1.1406 0.023438-2.4961 0.20312-2.2812-1.1523 0.91016-0.16797 0.82812 0.69531 1.9219 0.37109-0.13281-0.625 0.49219-1.0312 0.75781-0.37109-0.46094 0.0625-0.42188 0.58984-0.39844 1.1523zm6.5273 0.76953c-2.9141-0.28906-3.6367-0.89844-5.7461-2.293 0.68359 0.22656 2.2422-0.46875 2.2812 0.38281-0.28906 0.085938-0.74219 0.023438-0.74219 0.37109 1.2734 0.97266 3.6016-0.85156 4.957 0.38281-0.5 0.17188-0.77344 0.49609-0.75 1.1562zm67.645-37.105c0.73047-0.058594 2.5547-0.97266 3.0703 0-1.1875 0.68359-2.2305 1.7148-3.0703 0zm56.219-116.62c-2.2695-0.67188-6-3.1797-8.0156-5.3633 4.8125-1.5117 5.7461 3.1797 8.0156 5.3633zm-4.957 94.082c3.4805-1.7383 10.43-2.2305 12.996 0-4.1992-0.66016-9.1797 1.3438-12.996 0zm12.613-63.492c-1.0664-1.3438-2.2578-2.5938-2.6523-4.5977 5.0898-1.1523 10.355-5.2578 12.984 0-3.9609 1.0234-6.3359 3.6016-10.332 4.5977zm15.695 137.24c-1.9922-0.035157-4.4297 0.35937-5.3633-0.75781 1.5-0.17969 5.1133-1.3086 5.7344 0-0.30859 0.10156-0.44141 0.36328-0.37109 0.75781zm11.449-99c1.6211-2.4844 6.1094-4.0781 8.7852-4.1992-3.4336 1.6211-5.4258 3-8.7852 4.1992zm18.371 55.43c-0.20312-0.53906-0.57422-0.94922-0.78125-1.5117 1.2227 0.17969 1.3789-0.69531 2.7109-0.38281-0.20313 1.1016-0.83594 1.7383-1.9297 1.8945zm7.9688-119.26c-9.707 4.6914-19.152 9.5898-29.398 13.738 0.058594-1.6094 1.5-1.8242 1.5234-3.4336 5.5664-2.125 11.652-3.6953 16.465-6.5156 3.957-0.47656 9.2383-3.6055 11.41-3.7891 0.023438 0 0.046875-0.011718 0.070312-0.035156 0.12109 0.035156 0.25391 0 0.35938 0-0.10547-0.011718-0.29688 0.035156-0.42969 0.035156zm6.5859 103.2c-0.88672 1.0195-1.2969 3.2031-3.0977 2.6875 5.2578-8.2695 11.855-15.168 16.441-24.121 10.848-11.93 19.332-28.332 29.832-39.359-14.648 19.176-27.551 42.898-43.176 60.793z"/>
 </g>
</svg>
