<svg width="169" height="40" viewBox="0 0 169 40" fill="none" xmlns="http://www.w3.org/2000/svg">
<path d="M59.0672 6.63778C59.0104 6.06487 58.7665 5.61979 58.3357 5.30255C57.9048 4.98532 57.32 4.8267 56.5814 4.8267C56.0795 4.8267 55.6557 4.89772 55.3101 5.03977C54.9644 5.17708 54.6993 5.36884 54.5146 5.61505C54.3347 5.86127 54.2447 6.14062 54.2447 6.45312C54.2353 6.71354 54.2897 6.94081 54.4081 7.13494C54.5312 7.32907 54.6993 7.49716 54.9124 7.6392C55.1254 7.77651 55.3716 7.89725 55.651 8.00142C55.9303 8.10085 56.2286 8.18608 56.5459 8.2571L57.8527 8.5696C58.4872 8.71165 59.0696 8.90104 59.5999 9.13778C60.1302 9.37452 60.5894 9.66572 60.9777 10.0114C61.366 10.357 61.6666 10.7642 61.8797 11.233C62.0975 11.7017 62.2088 12.2391 62.2135 12.8452C62.2088 13.7353 61.9815 14.5071 61.5317 15.1605C61.0866 15.8092 60.4427 16.3134 59.5999 16.6733C58.7618 17.0284 57.7509 17.206 56.5672 17.206C55.3929 17.206 54.3702 17.026 53.499 16.6662C52.6325 16.3063 51.9554 15.7737 51.4678 15.0682C50.9848 14.358 50.7315 13.4796 50.7078 12.4332H53.6837C53.7168 12.9209 53.8565 13.3281 54.1027 13.6548C54.3536 13.9768 54.6874 14.2206 55.1041 14.3864C55.5255 14.5473 56.0014 14.6278 56.5317 14.6278C57.0525 14.6278 57.5047 14.5521 57.8882 14.4006C58.2765 14.2491 58.5771 14.0384 58.7902 13.7685C59.0033 13.4986 59.1098 13.1884 59.1098 12.8381C59.1098 12.5114 59.0127 12.2367 58.8186 12.0142C58.6292 11.7917 58.3499 11.6023 57.9805 11.446C57.616 11.2898 57.1685 11.1477 56.6382 11.0199L55.0544 10.6222C53.8281 10.3239 52.8598 9.85748 52.1496 9.22301C51.4393 8.58854 51.0866 7.7339 51.0913 6.65909C51.0866 5.77841 51.321 5.00899 51.7945 4.35085C52.2727 3.69271 52.9285 3.17897 53.7618 2.80966C54.5951 2.44034 55.5421 2.25568 56.6027 2.25568C57.6822 2.25568 58.6245 2.44034 59.4294 2.80966C60.2391 3.17897 60.8688 3.69271 61.3186 4.35085C61.7684 5.00899 62.0004 5.7713 62.0146 6.63778H59.0672ZM70.2278 6.09091V8.36363H63.6582V6.09091H70.2278ZM65.1496 3.47727H68.1752V13.6477C68.1752 13.9271 68.2178 14.1449 68.3031 14.3011C68.3883 14.4527 68.5067 14.5592 68.6582 14.6207C68.8144 14.6823 68.9943 14.7131 69.1979 14.7131C69.34 14.7131 69.482 14.7012 69.6241 14.6776C69.7661 14.6491 69.875 14.6278 69.9508 14.6136L70.4266 16.8651C70.2751 16.9124 70.062 16.9669 69.7874 17.0284C69.5128 17.0947 69.179 17.1349 68.786 17.1491C68.0568 17.1776 67.4176 17.0805 66.8684 16.858C66.3239 16.6354 65.9001 16.2898 65.5971 15.821C65.2941 15.3523 65.1449 14.7604 65.1496 14.0455V3.47727ZM77.2531 17.2131C76.1309 17.2131 75.165 16.9858 74.3553 16.5312C73.5504 16.072 72.9301 15.4233 72.4945 14.5852C72.0589 13.7424 71.8411 12.7457 71.8411 11.5952C71.8411 10.473 72.0589 9.48816 72.4945 8.64062C72.9301 7.79309 73.5433 7.13257 74.334 6.65909C75.1295 6.1856 76.0622 5.94886 77.1323 5.94886C77.852 5.94886 78.522 6.06487 79.1423 6.29687C79.7673 6.52415 80.3118 6.86742 80.7758 7.3267C81.2445 7.78598 81.6091 8.36363 81.8695 9.05966C82.1299 9.75095 82.2602 10.5606 82.2602 11.4886V12.3196H73.0485V10.4446H79.4121C79.4121 10.009 79.3174 9.6231 79.1281 9.28693C78.9387 8.95076 78.6759 8.68797 78.3397 8.49858C78.0083 8.30445 77.6224 8.20738 77.182 8.20738C76.7228 8.20738 76.3156 8.31392 75.9604 8.52699C75.6101 8.73532 75.3354 9.01704 75.1366 9.37216C74.9377 9.72254 74.8359 10.1132 74.8312 10.544V12.3267C74.8312 12.8665 74.9306 13.3329 75.1295 13.7259C75.3331 14.1188 75.6195 14.4219 75.9888 14.6349C76.3582 14.848 76.7961 14.9545 77.3028 14.9545C77.6389 14.9545 77.9467 14.9072 78.2261 14.8125C78.5054 14.7178 78.7445 14.5758 78.9434 14.3864C79.1423 14.197 79.2938 13.965 79.3979 13.6903L82.1962 13.875C82.0542 14.5473 81.763 15.1345 81.3227 15.6364C80.8871 16.1335 80.3236 16.5218 79.6323 16.8011C78.9458 17.0758 78.1527 17.2131 77.2531 17.2131ZM87.5454 17.206C86.8494 17.206 86.2291 17.0852 85.6846 16.8437C85.1401 16.5975 84.7092 16.2353 84.392 15.7571C84.0795 15.2741 83.9232 14.6728 83.9232 13.9531C83.9232 13.3471 84.0345 12.8381 84.257 12.4261C84.4796 12.0142 84.7826 11.6828 85.1661 11.4318C85.5496 11.1809 85.9853 10.9915 86.4729 10.8636C86.9654 10.7358 87.4815 10.6458 88.0212 10.5937C88.6557 10.5275 89.1671 10.4659 89.5553 10.4091C89.9436 10.3475 90.2253 10.2576 90.4005 10.1392C90.5757 10.0208 90.6633 9.84564 90.6633 9.61363V9.57102C90.6633 9.12121 90.5212 8.7732 90.2371 8.52699C89.9578 8.28077 89.5601 8.15767 89.044 8.15767C88.4995 8.15767 88.0662 8.27841 87.7442 8.51988C87.4223 8.75663 87.2092 9.05492 87.105 9.41477L84.3067 9.1875C84.4488 8.52462 84.7282 7.9517 85.1448 7.46875C85.5615 6.98106 86.0989 6.607 86.757 6.34659C87.4199 6.08144 88.187 5.94886 89.0582 5.94886C89.6642 5.94886 90.2443 6.01988 90.7982 6.16193C91.3569 6.30398 91.8517 6.52415 92.2826 6.82244C92.7182 7.12074 93.0615 7.50426 93.3124 7.97301C93.5634 8.43702 93.6889 8.99337 93.6889 9.64204V17H90.8195V15.4872H90.7343C90.5591 15.8281 90.3247 16.1288 90.0312 16.3892C89.7376 16.6449 89.3849 16.8461 88.9729 16.9929C88.561 17.1349 88.0852 17.206 87.5454 17.206ZM88.4119 15.1179C88.8569 15.1179 89.2499 15.0303 89.5908 14.8551C89.9318 14.6752 90.1993 14.4337 90.3934 14.1307C90.5875 13.8277 90.6846 13.4844 90.6846 13.1009V11.9432C90.5899 12.0047 90.4597 12.0616 90.294 12.1136C90.133 12.161 89.9507 12.206 89.7471 12.2486C89.5435 12.2865 89.3399 12.322 89.1363 12.3551C88.9327 12.3835 88.748 12.4096 88.5823 12.4332C88.2272 12.4853 87.9171 12.5682 87.6519 12.6818C87.3868 12.7955 87.1808 12.9493 87.034 13.1435C86.8872 13.3329 86.8139 13.5696 86.8139 13.8537C86.8139 14.2656 86.963 14.5805 87.2613 14.7983C87.5643 15.0114 87.9478 15.1179 88.4119 15.1179ZM98.9776 13.8608L98.9847 10.2315H99.4251L102.919 6.09091H106.392L101.698 11.5739H100.98L98.9776 13.8608ZM96.2362 17V2.45454H99.2617V17H96.2362ZM103.054 17L99.8441 12.2486L101.861 10.1108L106.598 17H103.054ZM111.102 10.6932V17H108.077V2.45454H111.017V8.01562H111.145C111.391 7.37168 111.789 6.86742 112.338 6.50284C112.887 6.13352 113.576 5.94886 114.405 5.94886C115.162 5.94886 115.823 6.11458 116.386 6.44602C116.955 6.77272 117.395 7.24384 117.707 7.85937C118.025 8.47017 118.181 9.2017 118.176 10.054V17H115.151V10.5937C115.155 9.9214 114.985 9.3982 114.639 9.02415C114.298 8.65009 113.82 8.46307 113.205 8.46307C112.793 8.46307 112.428 8.55066 112.111 8.72585C111.798 8.90104 111.552 9.15672 111.372 9.4929C111.197 9.82434 111.107 10.2244 111.102 10.6932ZM125.686 17.2131C124.583 17.2131 123.629 16.9787 122.824 16.5099C122.024 16.0365 121.406 15.3783 120.97 14.5355C120.535 13.688 120.317 12.7055 120.317 11.5881C120.317 10.4612 120.535 9.47632 120.97 8.63352C121.406 7.78598 122.024 7.12784 122.824 6.65909C123.629 6.1856 124.583 5.94886 125.686 5.94886C126.789 5.94886 127.741 6.1856 128.541 6.65909C129.346 7.12784 129.967 7.78598 130.402 8.63352C130.838 9.47632 131.056 10.4612 131.056 11.5881C131.056 12.7055 130.838 13.688 130.402 14.5355C129.967 15.3783 129.346 16.0365 128.541 16.5099C127.741 16.9787 126.789 17.2131 125.686 17.2131ZM125.7 14.8693C126.202 14.8693 126.621 14.7273 126.958 14.4432C127.294 14.1544 127.547 13.7614 127.717 13.2642C127.893 12.767 127.98 12.2012 127.98 11.5668C127.98 10.9323 127.893 10.3665 127.717 9.86932C127.547 9.37216 127.294 8.97916 126.958 8.69034C126.621 8.40151 126.202 8.2571 125.7 8.2571C125.194 8.2571 124.768 8.40151 124.422 8.69034C124.081 8.97916 123.823 9.37216 123.648 9.86932C123.477 10.3665 123.392 10.9323 123.392 11.5668C123.392 12.2012 123.477 12.767 123.648 13.2642C123.823 13.7614 124.081 14.1544 124.422 14.4432C124.768 14.7273 125.194 14.8693 125.7 14.8693ZM140.219 12.3551V6.09091H143.244V17H140.339V15.0185H140.226C139.98 15.6577 139.57 16.1714 138.997 16.5597C138.429 16.9479 137.735 17.142 136.916 17.142C136.187 17.142 135.545 16.9763 134.991 16.6449C134.437 16.3134 134.004 15.8423 133.692 15.2315C133.384 14.6207 133.228 13.8892 133.223 13.0369V6.09091H136.248V12.4972C136.253 13.1411 136.426 13.6501 136.767 14.0241C137.108 14.3982 137.565 14.5852 138.138 14.5852C138.502 14.5852 138.843 14.5024 139.16 14.3366C139.478 14.1662 139.733 13.9152 139.927 13.5838C140.126 13.2524 140.223 12.8428 140.219 12.3551ZM154.941 9.2017L152.171 9.37216C152.124 9.13541 152.022 8.92235 151.866 8.73295C151.709 8.53882 151.503 8.38494 151.248 8.2713C150.997 8.15293 150.696 8.09375 150.346 8.09375C149.877 8.09375 149.482 8.19318 149.16 8.39204C148.838 8.58617 148.677 8.84659 148.677 9.17329C148.677 9.43371 148.781 9.65388 148.989 9.83381C149.198 10.0137 149.555 10.1581 150.062 10.267L152.036 10.6648C153.097 10.8826 153.887 11.233 154.408 11.7159C154.929 12.1989 155.19 12.8333 155.19 13.6193C155.19 14.3343 154.979 14.9616 154.557 15.5014C154.141 16.0412 153.568 16.4626 152.839 16.7656C152.114 17.0639 151.279 17.2131 150.332 17.2131C148.887 17.2131 147.737 16.9124 146.88 16.3111C146.028 15.705 145.528 14.8812 145.381 13.8395L148.357 13.6832C148.447 14.1236 148.665 14.4598 149.011 14.6918C149.356 14.919 149.799 15.0327 150.339 15.0327C150.869 15.0327 151.295 14.9309 151.617 14.7273C151.944 14.5189 152.11 14.2514 152.114 13.9247C152.11 13.6501 151.994 13.4252 151.766 13.25C151.539 13.0701 151.189 12.9328 150.715 12.8381L148.826 12.4616C147.761 12.2486 146.968 11.8793 146.447 11.3537C145.931 10.8281 145.673 10.1581 145.673 9.34375C145.673 8.64299 145.862 8.0393 146.241 7.53267C146.624 7.02604 147.162 6.63541 147.853 6.36079C148.549 6.08617 149.363 5.94886 150.296 5.94886C151.674 5.94886 152.758 6.24005 153.549 6.82244C154.344 7.40483 154.808 8.19791 154.941 9.2017ZM162.266 17.2131C161.144 17.2131 160.178 16.9858 159.369 16.5312C158.564 16.072 157.943 15.4233 157.508 14.5852C157.072 13.7424 156.854 12.7457 156.854 11.5952C156.854 10.473 157.072 9.48816 157.508 8.64062C157.943 7.79309 158.557 7.13257 159.347 6.65909C160.143 6.1856 161.076 5.94886 162.146 5.94886C162.865 5.94886 163.535 6.06487 164.156 6.29687C164.781 6.52415 165.325 6.86742 165.789 7.3267C166.258 7.78598 166.622 8.36363 166.883 9.05966C167.143 9.75095 167.273 10.5606 167.273 11.4886V12.3196H158.062V10.4446H164.425C164.425 10.009 164.331 9.6231 164.141 9.28693C163.952 8.95076 163.689 8.68797 163.353 8.49858C163.022 8.30445 162.636 8.20738 162.195 8.20738C161.736 8.20738 161.329 8.31392 160.974 8.52699C160.623 8.73532 160.349 9.01704 160.15 9.37216C159.951 9.72254 159.849 10.1132 159.844 10.544V12.3267C159.844 12.8665 159.944 13.3329 160.143 13.7259C160.346 14.1188 160.633 14.4219 161.002 14.6349C161.371 14.848 161.809 14.9545 162.316 14.9545C162.652 14.9545 162.96 14.9072 163.239 14.8125C163.519 14.7178 163.758 14.5758 163.957 14.3864C164.156 14.197 164.307 13.965 164.411 13.6903L167.21 13.875C167.067 14.5473 166.776 15.1345 166.336 15.6364C165.9 16.1335 165.337 16.5218 164.646 16.8011C163.959 17.0758 163.166 17.2131 162.266 17.2131ZM51.1766 37V22.4545H60.8072V24.9901H54.2518V28.456H60.168V30.9915H54.2518V37H51.1766ZM63.019 37V26.0909H66.0445V37H63.019ZM64.5388 24.6847C64.089 24.6847 63.7031 24.5355 63.3812 24.2372C63.0639 23.9342 62.9053 23.572 62.9053 23.1506C62.9053 22.7339 63.0639 22.3764 63.3812 22.0781C63.7031 21.7751 64.089 21.6236 64.5388 21.6236C64.9887 21.6236 65.3722 21.7751 65.6894 22.0781C66.0114 22.3764 66.1724 22.7339 66.1724 23.1506C66.1724 23.572 66.0114 23.9342 65.6894 24.2372C65.3722 24.5355 64.9887 24.6847 64.5388 24.6847ZM71.6937 30.6932V37H68.6682V26.0909H71.5517V28.0156H71.6795C71.921 27.3812 72.3259 26.8793 72.894 26.5099C73.4622 26.1359 74.1511 25.9489 74.9608 25.9489C75.7184 25.9489 76.3789 26.1146 76.9423 26.446C77.5058 26.7775 77.9438 27.2509 78.2563 27.8665C78.5688 28.4773 78.725 29.2064 78.725 30.054V37H75.6994V30.5937C75.7042 29.9261 75.5337 29.4053 75.1881 29.0312C74.8424 28.6525 74.3666 28.4631 73.7605 28.4631C73.3533 28.4631 72.9935 28.5507 72.681 28.7259C72.3732 28.901 72.1317 29.1567 71.9565 29.4929C71.7861 29.8243 71.6985 30.2244 71.6937 30.6932ZM84.4204 37.206C83.7244 37.206 83.1041 37.0852 82.5596 36.8437C82.0151 36.5975 81.5842 36.2353 81.267 35.7571C80.9545 35.2741 80.7982 34.6728 80.7982 33.9531C80.7982 33.3471 80.9095 32.8381 81.132 32.4261C81.3546 32.0142 81.6576 31.6828 82.0411 31.4318C82.4246 31.1809 82.8603 30.9915 83.3479 30.8636C83.8404 30.7358 84.3565 30.6458 84.8962 30.5937C85.5307 30.5275 86.0421 30.4659 86.4303 30.4091C86.8186 30.3475 87.1003 30.2576 87.2755 30.1392C87.4507 30.0208 87.5383 29.8456 87.5383 29.6136V29.571C87.5383 29.1212 87.3962 28.7732 87.1121 28.527C86.8328 28.2808 86.4351 28.1577 85.919 28.1577C85.3745 28.1577 84.9412 28.2784 84.6192 28.5199C84.2973 28.7566 84.0842 29.0549 83.98 29.4148L81.1817 29.1875C81.3238 28.5246 81.6031 27.9517 82.0198 27.4687C82.4365 26.9811 82.9739 26.607 83.632 26.3466C84.2949 26.0814 85.062 25.9489 85.9332 25.9489C86.5392 25.9489 87.1192 26.0199 87.6732 26.1619C88.2319 26.304 88.7267 26.5241 89.1576 26.8224C89.5932 27.1207 89.9365 27.5043 90.1874 27.973C90.4384 28.437 90.5639 28.9934 90.5639 29.642V37H87.6945V35.4872H87.6093C87.4341 35.8281 87.1997 36.1288 86.9062 36.3892C86.6126 36.6449 86.2599 36.8461 85.8479 36.9929C85.436 37.1349 84.9602 37.206 84.4204 37.206ZM85.2869 35.1179C85.7319 35.1179 86.1249 35.0303 86.4658 34.8551C86.8067 34.6752 87.0743 34.4337 87.2684 34.1307C87.4625 33.8277 87.5596 33.4844 87.5596 33.1009V31.9432C87.4649 32.0047 87.3347 32.0616 87.169 32.1136C87.008 32.161 86.8257 32.206 86.6221 32.2486C86.4185 32.2865 86.2149 32.322 86.0113 32.3551C85.8077 32.3835 85.623 32.4096 85.4573 32.4332C85.1022 32.4853 84.7921 32.5682 84.5269 32.6818C84.2618 32.7955 84.0558 32.9493 83.909 33.1435C83.7622 33.3329 83.6888 33.5696 83.6888 33.8537C83.6888 34.2656 83.838 34.5805 84.1363 34.7983C84.4393 35.0114 84.8228 35.1179 85.2869 35.1179ZM96.1367 30.6932V37H93.1112V26.0909H95.9947V28.0156H96.1225C96.364 27.3812 96.7688 26.8793 97.337 26.5099C97.9052 26.1359 98.5941 25.9489 99.4038 25.9489C100.161 25.9489 100.822 26.1146 101.385 26.446C101.949 26.7775 102.387 27.2509 102.699 27.8665C103.012 28.4773 103.168 29.2064 103.168 30.054V37H100.142V30.5937C100.147 29.9261 99.9767 29.4053 99.631 29.0312C99.2854 28.6525 98.8095 28.4631 98.2035 28.4631C97.7963 28.4631 97.4364 28.5507 97.1239 28.7259C96.8162 28.901 96.5747 29.1567 96.3995 29.4929C96.2291 29.8243 96.1415 30.2244 96.1367 30.6932ZM110.682 37.2131C109.564 37.2131 108.603 36.9763 107.798 36.5028C106.998 36.0246 106.382 35.3617 105.951 34.5142C105.525 33.6667 105.312 32.6913 105.312 31.5881C105.312 30.4706 105.528 29.4905 105.959 28.6477C106.394 27.8002 107.012 27.1397 107.812 26.6662C108.612 26.188 109.564 25.9489 110.667 25.9489C111.619 25.9489 112.452 26.1217 113.167 26.4673C113.882 26.813 114.448 27.2983 114.865 27.9233C115.281 28.5483 115.511 29.2822 115.554 30.125H112.699C112.618 29.5805 112.405 29.1425 112.059 28.8111C111.718 28.4749 111.271 28.3068 110.717 28.3068C110.248 28.3068 109.839 28.4347 109.488 28.6903C109.143 28.9413 108.873 29.3082 108.679 29.7912C108.485 30.2741 108.388 30.8589 108.388 31.5455C108.388 32.2415 108.482 32.8333 108.672 33.321C108.866 33.8087 109.138 34.1804 109.488 34.4361C109.839 34.6918 110.248 34.8196 110.717 34.8196C111.063 34.8196 111.373 34.7486 111.647 34.6065C111.927 34.4645 112.156 34.2585 112.336 33.9886C112.521 33.714 112.642 33.3849 112.699 33.0014H115.554C115.506 33.8348 115.279 34.5687 114.872 35.2031C114.469 35.8329 113.913 36.3253 113.203 36.6804C112.493 37.0355 111.652 37.2131 110.682 37.2131ZM117.691 37V26.0909H120.716V37H117.691ZM119.211 24.6847C118.761 24.6847 118.375 24.5355 118.053 24.2372C117.736 23.9342 117.577 23.572 117.577 23.1506C117.577 22.7339 117.736 22.3764 118.053 22.0781C118.375 21.7751 118.761 21.6236 119.211 21.6236C119.661 21.6236 120.044 21.7751 120.361 22.0781C120.683 22.3764 120.844 22.7339 120.844 23.1506C120.844 23.572 120.683 23.9342 120.361 24.2372C120.044 24.5355 119.661 24.6847 119.211 24.6847ZM126.451 37.206C125.755 37.206 125.135 37.0852 124.59 36.8437C124.046 36.5975 123.615 36.2353 123.297 35.7571C122.985 35.2741 122.829 34.6728 122.829 33.9531C122.829 33.3471 122.94 32.8381 123.163 32.4261C123.385 32.0142 123.688 31.6828 124.072 31.4318C124.455 31.1809 124.891 30.9915 125.378 30.8636C125.871 30.7358 126.387 30.6458 126.927 30.5937C127.561 30.5275 128.073 30.4659 128.461 30.4091C128.849 30.3475 129.131 30.2576 129.306 30.1392C129.481 30.0208 129.569 29.8456 129.569 29.6136V29.571C129.569 29.1212 129.427 28.7732 129.143 28.527C128.863 28.2808 128.466 28.1577 127.949 28.1577C127.405 28.1577 126.972 28.2784 126.65 28.5199C126.328 28.7566 126.115 29.0549 126.011 29.4148L123.212 29.1875C123.354 28.5246 123.634 27.9517 124.05 27.4687C124.467 26.9811 125.004 26.607 125.663 26.3466C126.325 26.0814 127.092 25.9489 127.964 25.9489C128.57 25.9489 129.15 26.0199 129.704 26.1619C130.262 26.304 130.757 26.5241 131.188 26.8224C131.624 27.1207 131.967 27.5043 132.218 27.973C132.469 28.437 132.594 28.9934 132.594 29.642V37H129.725V35.4872H129.64C129.465 35.8281 129.23 36.1288 128.937 36.3892C128.643 36.6449 128.29 36.8461 127.878 36.9929C127.466 37.1349 126.991 37.206 126.451 37.206ZM127.317 35.1179C127.762 35.1179 128.155 35.0303 128.496 34.8551C128.837 34.6752 129.105 34.4337 129.299 34.1307C129.493 33.8277 129.59 33.4844 129.59 33.1009V31.9432C129.495 32.0047 129.365 32.0616 129.199 32.1136C129.038 32.161 128.856 32.206 128.653 32.2486C128.449 32.2865 128.245 32.322 128.042 32.3551C127.838 32.3835 127.654 32.4096 127.488 32.4332C127.133 32.4853 126.823 32.5682 126.557 32.6818C126.292 32.7955 126.086 32.9493 125.939 33.1435C125.793 33.3329 125.719 33.5696 125.719 33.8537C125.719 34.2656 125.868 34.5805 126.167 34.7983C126.47 35.0114 126.853 35.1179 127.317 35.1179ZM138.167 22.4545V37H135.142V22.4545H138.167Z" fill="#EDF5FA"/>
<mask id="mask0_120_24" style="mask-type:luminance" maskUnits="userSpaceOnUse" x="0" y="0" width="47" height="39">
<path d="M45.6884 1.21103L37.0997 9.79979C36.1327 10.7668 34.9522 11.4695 33.6676 11.863C32.889 12.102 32.0724 12.2256 31.2432 12.2256H15.2477C14.4185 12.2256 13.602 12.102 12.8234 11.863C11.5388 11.4695 10.3581 10.7668 9.39124 9.79979C6.52698 6.93547 3.66543 4.07397 0.802548 1.20965C0.535535 0.9427 0.267013 0.674242 0 0.407166C0.0604962 0.993261 0.14753 1.62294 0.272673 2.28764C0.508746 3.55957 0.878451 4.96223 1.45184 6.43515C1.68226 7.02967 1.93248 7.59891 2.19666 8.14281C2.86715 9.5229 3.63166 10.7457 4.42722 11.8223C5.92535 13.8503 7.95763 15.3682 10.2527 16.2536C11.7622 16.8355 13.3841 17.1447 15.0425 17.1447H31.4484C33.1068 17.1447 34.7288 16.8355 36.2382 16.2536C38.5333 15.3682 40.5656 13.8503 42.0638 11.8223C42.8578 10.747 43.6238 9.5229 44.2928 8.14419C44.5585 7.60029 44.8086 7.02967 45.0391 6.43515C45.6125 4.96223 45.9822 3.55957 46.2183 2.28764C46.3433 1.62294 46.4305 0.993261 46.491 0.407166C46.2225 0.675625 45.9554 0.9427 45.6884 1.21103ZM1.7835 18.6477L7.43486 24.3004H16.3806L11.9084 28.7726L15.3869 32.2511L23.3376 24.3004H38.8776L44.5318 18.6477C42.6106 16.7279 39.4961 16.7265 37.5748 18.6477L36.8426 19.3814H9.47281L8.73918 18.6477C7.77923 17.6878 6.51994 17.2071 5.26203 17.2071C4.00275 17.2071 2.74346 17.6878 1.7835 18.6477ZM24.577 26.5365L17.0482 33.9124L20.2919 37.1561C21.8743 38.7385 24.44 38.7385 26.0224 37.1561L36.6419 26.5365H24.577Z" fill="white"/>
</mask>
<g mask="url(#mask0_120_24)">
<rect x="-0.0878906" y="0.416687" width="46.6667" height="37.9167" fill="url(#paint0_linear_120_24)"/>
</g>
<defs>
<linearGradient id="paint0_linear_120_24" x1="-0.0878904" y1="18.8005" x2="46.5788" y2="18.8005" gradientUnits="userSpaceOnUse">
<stop offset="0.260417" stop-color="#4919F9"/>
<stop offset="0.713542" stop-color="#ED8620"/>
</linearGradient>
</defs>
</svg>
