<svg fill="none" height="65" width="65" xmlns="http://www.w3.org/2000/svg" xmlns:xlink="http://www.w3.org/1999/xlink"><linearGradient id="a"><stop offset="0" stop-color="#03b8ff"/><stop offset="1" stop-color="#fa52a0"/></linearGradient><linearGradient id="c" gradientUnits="userSpaceOnUse" x1="23.784" x2="33.621" xlink:href="#a" y1="1.862" y2="35.639"/><linearGradient id="d" gradientUnits="userSpaceOnUse" x1="31.884" x2="41.721" xlink:href="#a" y1="-.497" y2="33.279"/><linearGradient id="e" gradientUnits="userSpaceOnUse" x1="15.709" x2="25.546" xlink:href="#a" y1="4.213" y2="37.99"/><clipPath id="b"><path d="M0 0h64v64H0z" transform="translate(.733 .544)"/></clipPath><g clip-path="url(#b)"><path d="M14.066 6.677l49.6 33.867L51.4 58.677 1.8 24.544z" fill="url(#c)"/><path d="M63.666 40.544C59.4 46.677 45 44.277 31.4 34.677c-13.867-9.333-21.334-21.867-17.334-28 4.267-6.133 18.667-3.733 32.267 5.867 13.867 9.066 21.333 21.866 17.333 28z" fill="url(#d)"/><path d="M51.4 58.41c-4.267 6.134-18.667 3.734-32.267-5.866S-2.2 30.677 2.066 24.277c4.267-6.133 18.667-3.733 32.267 5.867S55.4 52.277 51.4 58.411z" fill="url(#e)"/><path d="M63.666 40.544L51.399 58.677c-4.266 6.134-18.666 3.467-32.266-5.867-2.667-1.866-5.067-3.733-7.467-5.866 1.867-.267 4.267-1.334 6.667-4 4.266-4.534 6.4-5.6 8.266-5.334 1.867 0 4 1.867 7.467 6.4 3.467 4.534 8.267 5.867 11.2 3.467.267-.266.533-.266.8-.533 2.4-1.867 3.2-2.667 7.733-11.2 1.067-2.133 4.8-5.6 9.867-4 1.333 3.467 1.333 6.4 0 8.8z" fill="#0e0f23"/><g fill="#fff"><path clip-rule="evenodd" d="M61.8 39.477c-3.733 5.333-16.8 2.667-29.333-6.133-12.8-8.8-20.267-20-16.534-25.334 3.733-5.333 16.8-2.666 29.334 6.133 12.533 8.8 20 20 16.533 25.334zm-11.733-8C48.2 34.144 41.8 32.81 35.4 28.544c-6.133-4.267-9.867-9.867-8-12.534s8.267-1.333 14.666 2.933c6.134 4.267 9.867 9.867 8 12.534z" fill-rule="evenodd"/><path d="M13 12.81c0-.266-.267-.533-.534-.266-.267.266-.533.266-.533.533.266.8.533 1.333.533 1.867 0 .266.267.533.533.266.267 0 .534-.266.267-.533 0-.533 0-1.067-.267-1.867zm1.333 4.267c0-.267-.267-.534-.533-.267-.267.267-.267.267-.267.534C16.467 24.01 22.6 31.21 30.6 36.543c.266.266.533 0 .8 0 .267-.267 0-.534 0-.8-8.267-5.334-14.133-12.267-17.067-18.667zM46.6 43.21c-.267 0-.534 0-.534.267s0 .533.267.533c.8.267 1.867.534 2.667.8.266 0 .533 0 .533-.266 0-.267 0-.534-.267-.534-.8-.266-1.866-.533-2.666-.8zm4.8 1.067c-.267 0-.534.267-.534.533 0 .267.267.533.534.533 2.133.267 4.533.534 6.4.267.266 0 .533-.267.533-.533 0-.267-.267-.533-.533-.533-2.134.266-4.267 0-6.4-.267z"/></g></g></svg>