<svg fill="none" height="65" width="65" xmlns="http://www.w3.org/2000/svg"><clipPath id="a"><path d="M0 0h64v64H0z" transform="translate(.697 .28)"/></clipPath><g clip-path="url(#a)"><path d="M32.697 64.28c17.673 0 32-14.327 32-32s-14.327-32-32-32-32 14.327-32 32 14.327 32 32 32z" fill="#6747ed"/><path clip-rule="evenodd" d="M32.23 36.413a8.507 8.507 0 0 1-8.533-8.533c0-4.734 3.8-8.534 8.534-8.534 4.733 0 8.533 3.8 8.533 8.534 0 4.733-3.8 8.533-8.533 8.533zm0-21.333c7.067 0 12.8 5.733 12.8 12.8 0 7.066-5.733 12.8-12.8 12.8-7.066 0-12.8-5.734-12.8-12.8 0-7.067 5.734-12.8 12.8-12.8zm12.2 26.266c.867.867.867 2.2 0 3l-8.533 8.534c-.866.866-2.2.866-3 0-.866-.867-.866-2.2 0-3l8.534-8.534c.8-.866 2.2-.866 3 0zm4.934-24.133c0 1.2-.933 2.133-2.133 2.133s-2.134-.933-2.134-2.133.934-2.133 2.134-2.133c1.133 0 2.133.933 2.133 2.133z" fill="#fff" fill-rule="evenodd"/></g></svg>