<svg width="40" height="41" viewBox="0 0 40 41" fill="none" xmlns="http://www.w3.org/2000/svg">
<path d="M35 11.887L20 3.55371L5 11.887V28.5537L20 36.887L35 28.5537V11.887ZM20 7.37038L29.85 12.837L24.8333 15.6204C23.6167 14.3537 21.9 13.5537 20 13.5537C18.1 13.5537 16.3833 14.3537 15.1667 15.6204L10.15 12.837L20 7.37038ZM18.3333 32.1537L8.33333 26.6037V15.6537L13.55 18.5537C13.4 19.0704 13.3333 19.637 13.3333 20.2204C13.3333 23.3204 15.45 25.937 18.3333 26.6704V32.1537ZM16.6667 20.2204C16.6667 18.387 18.1667 16.887 20 16.887C21.8333 16.887 23.3333 18.387 23.3333 20.2204C23.3333 22.0537 21.8333 23.5537 20 23.5537C18.1667 23.5537 16.6667 22.0537 16.6667 20.2204ZM21.6667 32.1537V26.687C24.55 25.9537 26.6667 23.337 26.6667 20.237C26.6667 19.6537 26.6 19.087 26.45 18.5537L31.6667 15.6537V26.6037L21.6667 32.1537Z" fill="url(#paint0_linear_11307_7147)"/>
<defs>
<linearGradient id="paint0_linear_11307_7147" x1="32.0161" y1="9.4689" x2="5.49546" y2="27.1109" gradientUnits="userSpaceOnUse">
<stop stop-color="#76A0FC"/>
<stop offset="1" stop-color="#B9AAFD"/>
</linearGradient>
</defs>
</svg>
