<svg fill="none" height="74" width="64" xmlns="http://www.w3.org/2000/svg"><clipPath id="a"><path d="M0 0h64v73.674H0z"/></clipPath><g clip-path="url(#a)" fill="#ff007a"><path d="M25.098 16.765c-.798-.114-.836-.152-.456-.19.723-.114 2.396.038 3.575.304 2.738.646 5.21 2.319 7.833 5.246l.685.799.988-.152c4.221-.685 8.556-.153 12.17 1.52.988.456 2.547 1.369 2.737 1.597.076.076.19.57.266 1.064.267 1.787.152 3.117-.418 4.144-.304.57-.304.722-.114 1.216.152.38.608.647 1.027.647.912 0 1.863-1.445 2.32-3.46l.19-.798.342.38c1.94 2.167 3.46 5.17 3.688 7.3l.076.57-.342-.495c-.57-.874-1.103-1.444-1.825-1.939-1.293-.874-2.662-1.14-6.275-1.33-3.27-.19-5.133-.456-6.959-1.065-3.118-1.026-4.715-2.357-8.404-7.26-1.635-2.168-2.662-3.346-3.688-4.334-2.244-2.167-4.488-3.308-7.416-3.764z"/><path d="M53.429 21.593c.076-1.445.266-2.395.684-3.27.153-.342.305-.646.343-.646s-.038.266-.153.57c-.304.837-.342 2.015-.152 3.346.267 1.71.38 1.939 2.206 3.801a61.625 61.625 0 0 1 2.206 2.433l.646.837-.646-.609c-.799-.76-2.624-2.204-3.043-2.395-.266-.151-.304-.151-.494.039-.152.152-.19.38-.19 1.482-.038 1.71-.266 2.775-.837 3.878-.304.57-.342.456-.076-.19.19-.494.228-.723.228-2.357 0-3.308-.38-4.106-2.7-5.436-.57-.343-1.559-.837-2.13-1.103-.607-.266-1.064-.494-1.026-.494.076-.076 2.32.57 3.194.95 1.331.532 1.56.57 1.712.532.114-.114.19-.418.228-1.368zm-26.772 5.664c-1.597-2.205-2.624-5.626-2.396-8.173l.076-.798.38.076c.685.114 1.864.57 2.434.912 1.521.912 2.206 2.167 2.852 5.284.19.913.457 1.977.57 2.32.19.57.913 1.9 1.522 2.736.418.609.152.913-.799.837-1.445-.152-3.384-1.483-4.64-3.194zm24.832 16.537c-7.53-3.041-10.191-5.664-10.191-10.112 0-.646.038-1.179.038-1.179.038 0 .304.228.646.495 1.521 1.216 3.233 1.748 7.986 2.433 2.776.418 4.373.722 5.818 1.216 4.602 1.52 7.454 4.638 8.138 8.858.19 1.216.076 3.535-.228 4.752-.266.95-1.027 2.699-1.217 2.737-.038 0-.114-.19-.114-.494-.076-1.597-.875-3.118-2.206-4.296-1.597-1.369-3.65-2.395-8.67-4.41zm-5.324 1.255a8.996 8.996 0 0 0-.38-1.597l-.19-.57.342.418c.494.57.875 1.255 1.217 2.205.266.722.266.95.266 2.129 0 1.14-.038 1.406-.266 2.053-.38 1.026-.837 1.748-1.597 2.547-1.37 1.406-3.157 2.167-5.704 2.509-.457.038-1.75.152-2.89.228-2.853.152-4.754.456-6.465 1.064-.228.076-.457.152-.495.114-.076-.076 1.103-.76 2.054-1.216 1.33-.647 2.7-.989 5.704-1.52 1.483-.229 3.004-.533 3.384-.685 3.765-1.179 5.629-4.106 5.02-7.68z"/><path d="M49.626 51.17c-.989-2.168-1.217-4.22-.684-6.16.076-.19.152-.38.228-.38s.304.114.532.267c.456.304 1.407.836 3.84 2.166 3.081 1.673 4.83 2.966 6.047 4.448 1.065 1.293 1.712 2.775 2.016 4.6.19 1.027.076 3.498-.19 4.524-.837 3.231-2.738 5.816-5.514 7.299-.419.228-.76.38-.799.38-.038 0 .114-.38.342-.836.913-1.939 1.027-3.802.342-5.893-.418-1.292-1.292-2.85-3.042-5.474-2.091-3.041-2.586-3.84-3.118-4.942zm-28.33 11.632c2.814-2.357 6.274-4.03 9.468-4.562 1.37-.228 3.651-.152 4.906.19 2.015.532 3.84 1.673 4.791 3.08.913 1.368 1.331 2.547 1.75 5.17.152 1.026.342 2.09.38 2.319.304 1.368.913 2.433 1.673 3.003 1.179.874 3.232.912 5.248.152.342-.114.646-.228.646-.19.076.076-.95.76-1.635 1.102-.95.495-1.711.647-2.738.647-1.825 0-3.384-.95-4.64-2.851-.265-.38-.798-1.483-1.254-2.51-1.33-3.079-2.015-3.991-3.575-5.018-1.369-.874-3.118-1.064-4.449-.418-1.749.837-2.205 3.08-.989 4.448.495.57 1.407 1.026 2.168 1.14 1.407.19 2.624-.912 2.624-2.319 0-.912-.342-1.444-1.255-1.862-1.217-.532-2.548.076-2.51 1.254 0 .495.228.799.723 1.027.304.152.304.152.076.114-1.103-.228-1.37-1.597-.495-2.471 1.065-1.065 3.309-.608 4.07.874.304.608.342 1.825.075 2.585-.646 1.673-2.471 2.547-4.335 2.053-1.255-.342-1.787-.684-3.308-2.243-2.662-2.737-3.689-3.27-7.491-3.84l-.723-.114z"/><path clip-rule="evenodd" d="M1.293 1.635c8.86 10.758 22.512 27.485 23.196 28.397.57.76.343 1.483-.608 2.015-.532.304-1.635.609-2.168.609-.608 0-1.33-.305-1.825-.799-.342-.342-1.825-2.509-5.172-7.717-2.547-3.992-4.715-7.299-4.753-7.337-.152-.076-.152-.076 4.487 8.211 2.928 5.209 3.879 7.071 3.879 7.3 0 .493-.152.76-.76 1.444-1.027 1.14-1.484 2.433-1.826 5.132-.38 3.003-1.407 5.132-4.335 8.744-1.711 2.129-1.977 2.509-2.396 3.383-.532 1.064-.684 1.673-.76 3.041-.076 1.445.076 2.357.494 3.726.38 1.216.799 2.015 1.825 3.573.875 1.369 1.407 2.395 1.407 2.775 0 .305.076.305 1.445 0 3.27-.76 5.97-2.052 7.454-3.649.912-.988 1.14-1.52 1.14-2.89 0-.874-.037-1.064-.266-1.596-.38-.836-1.102-1.52-2.662-2.585-2.053-1.407-2.928-2.547-3.156-4.068-.19-1.292.038-2.166 1.179-4.562 1.179-2.47 1.483-3.497 1.673-6.006.114-1.597.305-2.243.76-2.737.495-.532.913-.722 2.092-.875 1.94-.266 3.195-.76 4.183-1.71.875-.798 1.255-1.597 1.293-2.775l.038-.875-.494-.532C24.87 27.22.114 0 0 0c-.038 0 .57.722 1.293 1.635zm11.674 54.058a1.57 1.57 0 0 0-.494-2.09c-.647-.419-1.636-.229-1.636.341 0 .152.077.304.305.38.342.19.38.38.114.799-.266.418-.266.798.076 1.064.532.418 1.255.19 1.635-.494zm15.401-19.996c-.912.266-1.787 1.254-2.053 2.243-.152.608-.076 1.71.19 2.053.418.532.799.684 1.863.684 2.092 0 3.88-.912 4.07-2.015.19-.912-.61-2.167-1.712-2.737-.57-.304-1.75-.418-2.358-.228zm2.434 1.9c.304-.456.19-.95-.38-1.292-1.027-.646-2.586-.114-2.586.874 0 .495.799 1.027 1.559 1.027.494 0 1.179-.304 1.407-.608z" fill-rule="evenodd"/></g></svg>