<svg fill="none" height="64" width="64" xmlns="http://www.w3.org/2000/svg"><linearGradient id="a" gradientUnits="userSpaceOnUse" x2="64" y2="64"><stop offset="0" stop-color="#0077fc"/><stop offset="1" stop-color="#095eb5"/></linearGradient><g clip-rule="evenodd" fill-rule="evenodd"><path d="M64 32c0-4.16-.832-8.384-2.432-12.224S57.6 12.352 54.656 9.344C51.648 6.4 48.128 4.032 44.224 2.432S36.16 0 32 0s-8.384.832-12.224 2.432S12.352 6.4 9.344 9.344C6.4 12.352 4.032 15.872 2.432 19.776S0 27.84 0 32s.832 8.384 2.432 12.224S6.4 51.648 9.344 54.656c2.944 2.944 6.528 5.312 10.368 6.912S27.84 64 32 64s8.384-.832 12.224-2.432 7.424-3.968 10.432-6.912c2.944-2.944 5.312-6.528 6.912-10.368S64 36.16 64 32z" fill="url(#a)"/><g fill="#fff"><path d="M30.336 17.536h3.328v28.928h-3.328z"/><path d="M28.48 31.168v-3.456C25.856 26.432 24 23.68 24 20.544c0-4.416 3.584-8 8-8 4.992 0 8.576 3.584 8.576 8 0 1.088-.256 2.176-.768 3.456L38.4 19.392l-2.816.896 2.496 9.536 9.728-3.584-1.216-2.816-3.648 1.216c.64-1.408.768-2.496.768-4.16 0-6.208-4.992-11.2-11.776-11.2-6.208 0-11.2 4.992-11.2 11.2.064 4.992 3.264 9.216 7.744 10.688zm7.04 1.664v3.456c2.624 1.28 4.48 4.032 4.48 7.168 0 4.416-3.584 8-8 8-4.992 0-8.576-3.584-8.576-8 0-1.088.256-2.176.768-3.456l1.408 4.608 2.816-.896-2.496-9.536-9.728 3.584 1.216 2.816 3.648-1.216c-.64 1.408-.768 2.496-.768 4.16 0 6.208 4.992 11.2 11.776 11.2 6.208 0 11.2-4.992 11.2-11.2C43.2 38.528 40 34.304 35.52 32.832z"/></g></g></svg>