<svg fill="none" height="42" width="142" xmlns="http://www.w3.org/2000/svg"><clipPath id="a"><path d="M0 0h142v41.765H0z"/></clipPath><g clip-path="url(#a)"><path clip-rule="evenodd" d="M51.925 20.818L39.881 8.572v8.968l-11.96 8.98 11.96.008v6.536z" fill="#4e529a" fill-rule="evenodd"/><path clip-rule="evenodd" d="M9.467 20.813L21.51 33.059v-8.874L33.383 15.2l-11.872-.008V8.567z" fill="#8c8dfc" fill-rule="evenodd"/><g fill="#000"><path d="M70.466 28.029h-9.241v-2.701l5.29-6.002H61.36V16.67h9.014v2.562l-5.45 6.118h5.54v2.678zM83.078 16.67l-4.473 4.779 4.563 6.579h-3.7l-2.952-4.34-1.249 1.339v3h-3.02V11.316h3.02v9.58l3.86-4.224h3.95zm13.134-1.108l-2.815.877c-.106-.585-.394-1.116-.863-1.593s-1.159-.716-2.067-.716c-.74 0-1.346.208-1.816.624-.469.4-.703.885-.703 1.454 0 1 .582 1.616 1.748 1.847l2.247.439c1.423.277 2.528.854 3.315 1.731a4.481 4.481 0 0 1 1.182 3.093c0 1.355-.53 2.54-1.59 3.556-1.045 1-2.453 1.5-4.223 1.5-1.014 0-1.93-.154-2.748-.462-.817-.307-1.476-.715-1.975-1.223a6.87 6.87 0 0 1-1.18-1.64 5.522 5.522 0 0 1-.5-1.8l2.906-.785c.076.878.409 1.608.999 2.193.605.585 1.446.878 2.52.878.817 0 1.454-.185 1.908-.555.469-.369.703-.854.703-1.454 0-.477-.174-.885-.522-1.223-.333-.354-.81-.593-1.43-.716l-2.248-.462c-1.302-.277-2.331-.823-3.088-1.639-.757-.815-1.135-1.831-1.135-3.047 0-1.447.545-2.663 1.635-3.648 1.105-.985 2.43-1.477 3.973-1.477.924 0 1.749.13 2.475.392s1.31.616 1.748 1.062c.44.431.78.878 1.022 1.34.242.461.416.946.522 1.454z"/><path d="M101.526 32.508h-3.201l2.633-5.91-4.745-9.927h3.383l2.975 6.649 2.747-6.65h3.224l-7.016 15.837zm11.185-11.012v6.533h-3.021V16.67h2.93v1.408a3.126 3.126 0 0 1 1.362-1.27 4.144 4.144 0 0 1 1.862-.438c1.317 0 2.316.423 2.997 1.27.697.83 1.045 1.908 1.045 3.231v7.157h-3.02v-6.626c0-.677-.174-1.223-.523-1.639-.333-.415-.847-.623-1.544-.623-.635 0-1.143.223-1.521.67-.378.446-.567 1.007-.567 1.685zm14.575-2.332c-.802 0-1.476.285-2.02.854-.545.57-.818 1.347-.818 2.332s.273 1.77.818 2.355c.56.57 1.241.854 2.043.854.711 0 1.279-.185 1.704-.554.423-.385.711-.839.862-1.362l2.656.9c-.272 1.047-.862 1.947-1.77 2.701-.909.754-2.059 1.131-3.452 1.131-1.665 0-3.065-.57-4.2-1.708-1.12-1.154-1.68-2.593-1.68-4.317 0-1.74.552-3.178 1.657-4.317 1.121-1.139 2.498-1.708 4.132-1.708 1.424 0 2.589.377 3.497 1.13.908.74 1.491 1.64 1.748 2.702l-2.702.923c-.363-1.277-1.188-1.916-2.475-1.916z"/></g></g></svg>